G04 #@! TF.GenerationSoftware,KiCad,Pcbnew,(5.1.10)-1*
G04 #@! TF.CreationDate,2021-06-05T02:46:31+08:00*
G04 #@! TF.ProjectId,ch340,63683334-302e-46b6-9963-61645f706362,rev?*
G04 #@! TF.SameCoordinates,Original*
G04 #@! TF.FileFunction,Copper,L2,Bot*
G04 #@! TF.FilePolarity,Positive*
%FSLAX46Y46*%
G04 Gerber Fmt 4.6, Leading zero omitted, Abs format (unit mm)*
G04 Created by KiCad (PCBNEW (5.1.10)-1) date 2021-06-05 02:46:31*
%MOMM*%
%LPD*%
G01*
G04 APERTURE LIST*
G04 #@! TA.AperFunction,ComponentPad*
%ADD10O,3.500000X1.900000*%
G04 #@! TD*
G04 #@! TA.AperFunction,ComponentPad*
%ADD11R,1.700000X1.700000*%
G04 #@! TD*
G04 #@! TA.AperFunction,ComponentPad*
%ADD12O,1.700000X1.700000*%
G04 #@! TD*
G04 #@! TA.AperFunction,ViaPad*
%ADD13C,0.800000*%
G04 #@! TD*
G04 #@! TA.AperFunction,Conductor*
%ADD14C,0.250000*%
G04 #@! TD*
G04 #@! TA.AperFunction,Conductor*
%ADD15C,0.254000*%
G04 #@! TD*
G04 #@! TA.AperFunction,Conductor*
%ADD16C,0.100000*%
G04 #@! TD*
G04 APERTURE END LIST*
D10*
X157425000Y-92465900D03*
X157425000Y-103865900D03*
D11*
X121290000Y-102009000D03*
D12*
X121290000Y-99469000D03*
X121290000Y-96929000D03*
X121290000Y-94389000D03*
D11*
X133230000Y-97922000D03*
D12*
X133230000Y-95382000D03*
X133230000Y-92842000D03*
D13*
X138528000Y-94831600D03*
X139492100Y-92910700D03*
X146639600Y-98241600D03*
X149100000Y-105056800D03*
X145971700Y-92507300D03*
X149354100Y-101083900D03*
D14*
X133230000Y-95382000D02*
X132054700Y-95382000D01*
X132054700Y-95382000D02*
X125427700Y-102009000D01*
X125427700Y-102009000D02*
X121290000Y-102009000D01*
D15*
X159657180Y-91791312D02*
X159613436Y-91690917D01*
X159435566Y-91434938D01*
X159211175Y-91218578D01*
X158948886Y-91050152D01*
X158658778Y-90936132D01*
X158352000Y-90880900D01*
X157552000Y-90880900D01*
X157552000Y-92338900D01*
X157572000Y-92338900D01*
X157572000Y-92592900D01*
X157552000Y-92592900D01*
X157552000Y-94050900D01*
X158352000Y-94050900D01*
X158658778Y-93995668D01*
X158948886Y-93881648D01*
X159211175Y-93713222D01*
X159435566Y-93496862D01*
X159613436Y-93240883D01*
X159657180Y-93140488D01*
X159657181Y-103191313D01*
X159613436Y-103090917D01*
X159435566Y-102834938D01*
X159211175Y-102618578D01*
X158948886Y-102450152D01*
X158658778Y-102336132D01*
X158352000Y-102280900D01*
X157552000Y-102280900D01*
X157552000Y-103738900D01*
X157572000Y-103738900D01*
X157572000Y-103992900D01*
X157552000Y-103992900D01*
X157552000Y-105450900D01*
X158352000Y-105450900D01*
X158658778Y-105395668D01*
X158948886Y-105281648D01*
X159211175Y-105113222D01*
X159435566Y-104896862D01*
X159613436Y-104640883D01*
X159657181Y-104540487D01*
X159657181Y-107018220D01*
X117764160Y-107018220D01*
X117764160Y-104238488D01*
X155084414Y-104238488D01*
X155112051Y-104355121D01*
X155236564Y-104640883D01*
X155414434Y-104896862D01*
X155638825Y-105113222D01*
X155901114Y-105281648D01*
X156191222Y-105395668D01*
X156498000Y-105450900D01*
X157298000Y-105450900D01*
X157298000Y-103992900D01*
X155204416Y-103992900D01*
X155084414Y-104238488D01*
X117764160Y-104238488D01*
X117764160Y-101159000D01*
X119801928Y-101159000D01*
X119801928Y-102859000D01*
X119814188Y-102983482D01*
X119850498Y-103103180D01*
X119909463Y-103213494D01*
X119988815Y-103310185D01*
X120085506Y-103389537D01*
X120195820Y-103448502D01*
X120315518Y-103484812D01*
X120440000Y-103497072D01*
X122140000Y-103497072D01*
X122178177Y-103493312D01*
X155084414Y-103493312D01*
X155204416Y-103738900D01*
X157298000Y-103738900D01*
X157298000Y-102280900D01*
X156498000Y-102280900D01*
X156191222Y-102336132D01*
X155901114Y-102450152D01*
X155638825Y-102618578D01*
X155414434Y-102834938D01*
X155236564Y-103090917D01*
X155112051Y-103376679D01*
X155084414Y-103493312D01*
X122178177Y-103493312D01*
X122264482Y-103484812D01*
X122384180Y-103448502D01*
X122494494Y-103389537D01*
X122591185Y-103310185D01*
X122670537Y-103213494D01*
X122729502Y-103103180D01*
X122765812Y-102983482D01*
X122778072Y-102859000D01*
X122778072Y-102769000D01*
X125390378Y-102769000D01*
X125427700Y-102772676D01*
X125465022Y-102769000D01*
X125465033Y-102769000D01*
X125576686Y-102758003D01*
X125719947Y-102714546D01*
X125851976Y-102643974D01*
X125967701Y-102549001D01*
X125991504Y-102519997D01*
X128162313Y-100349188D01*
X156240000Y-100349188D01*
X156240000Y-100582612D01*
X156285539Y-100811552D01*
X156374866Y-101027208D01*
X156504550Y-101221294D01*
X156669606Y-101386350D01*
X156863692Y-101516034D01*
X157079348Y-101605361D01*
X157308288Y-101650900D01*
X157541712Y-101650900D01*
X157770652Y-101605361D01*
X157986308Y-101516034D01*
X158180394Y-101386350D01*
X158345450Y-101221294D01*
X158475134Y-101027208D01*
X158564461Y-100811552D01*
X158610000Y-100582612D01*
X158610000Y-100349188D01*
X158564461Y-100120248D01*
X158475134Y-99904592D01*
X158345450Y-99710506D01*
X158180394Y-99545450D01*
X157986308Y-99415766D01*
X157770652Y-99326439D01*
X157541712Y-99280900D01*
X157308288Y-99280900D01*
X157079348Y-99326439D01*
X156863692Y-99415766D01*
X156669606Y-99545450D01*
X156504550Y-99710506D01*
X156374866Y-99904592D01*
X156285539Y-100120248D01*
X156240000Y-100349188D01*
X128162313Y-100349188D01*
X132129697Y-96381804D01*
X132208380Y-96460487D01*
X132135820Y-96482498D01*
X132025506Y-96541463D01*
X131928815Y-96620815D01*
X131849463Y-96717506D01*
X131790498Y-96827820D01*
X131754188Y-96947518D01*
X131741928Y-97072000D01*
X131741928Y-98772000D01*
X131754188Y-98896482D01*
X131790498Y-99016180D01*
X131849463Y-99126494D01*
X131928815Y-99223185D01*
X132025506Y-99302537D01*
X132135820Y-99361502D01*
X132255518Y-99397812D01*
X132380000Y-99410072D01*
X134080000Y-99410072D01*
X134204482Y-99397812D01*
X134324180Y-99361502D01*
X134434494Y-99302537D01*
X134531185Y-99223185D01*
X134610537Y-99126494D01*
X134669502Y-99016180D01*
X134705812Y-98896482D01*
X134718072Y-98772000D01*
X134718072Y-97072000D01*
X134705812Y-96947518D01*
X134669502Y-96827820D01*
X134610537Y-96717506D01*
X134531185Y-96620815D01*
X134434494Y-96541463D01*
X134324180Y-96482498D01*
X134251620Y-96460487D01*
X134383475Y-96328632D01*
X134545990Y-96085411D01*
X134657932Y-95815158D01*
X134671054Y-95749188D01*
X156240000Y-95749188D01*
X156240000Y-95982612D01*
X156285539Y-96211552D01*
X156374866Y-96427208D01*
X156504550Y-96621294D01*
X156669606Y-96786350D01*
X156863692Y-96916034D01*
X157079348Y-97005361D01*
X157308288Y-97050900D01*
X157541712Y-97050900D01*
X157770652Y-97005361D01*
X157986308Y-96916034D01*
X158180394Y-96786350D01*
X158345450Y-96621294D01*
X158475134Y-96427208D01*
X158564461Y-96211552D01*
X158610000Y-95982612D01*
X158610000Y-95749188D01*
X158564461Y-95520248D01*
X158475134Y-95304592D01*
X158345450Y-95110506D01*
X158180394Y-94945450D01*
X157986308Y-94815766D01*
X157770652Y-94726439D01*
X157541712Y-94680900D01*
X157308288Y-94680900D01*
X157079348Y-94726439D01*
X156863692Y-94815766D01*
X156669606Y-94945450D01*
X156504550Y-95110506D01*
X156374866Y-95304592D01*
X156285539Y-95520248D01*
X156240000Y-95749188D01*
X134671054Y-95749188D01*
X134715000Y-95528260D01*
X134715000Y-95235740D01*
X134657932Y-94948842D01*
X134545990Y-94678589D01*
X134383475Y-94435368D01*
X134176632Y-94228525D01*
X134002240Y-94112000D01*
X134176632Y-93995475D01*
X134383475Y-93788632D01*
X134545990Y-93545411D01*
X134657932Y-93275158D01*
X134715000Y-92988260D01*
X134715000Y-92838488D01*
X155084414Y-92838488D01*
X155112051Y-92955121D01*
X155236564Y-93240883D01*
X155414434Y-93496862D01*
X155638825Y-93713222D01*
X155901114Y-93881648D01*
X156191222Y-93995668D01*
X156498000Y-94050900D01*
X157298000Y-94050900D01*
X157298000Y-92592900D01*
X155204416Y-92592900D01*
X155084414Y-92838488D01*
X134715000Y-92838488D01*
X134715000Y-92695740D01*
X134657932Y-92408842D01*
X134545990Y-92138589D01*
X134515737Y-92093312D01*
X155084414Y-92093312D01*
X155204416Y-92338900D01*
X157298000Y-92338900D01*
X157298000Y-90880900D01*
X156498000Y-90880900D01*
X156191222Y-90936132D01*
X155901114Y-91050152D01*
X155638825Y-91218578D01*
X155414434Y-91434938D01*
X155236564Y-91690917D01*
X155112051Y-91976679D01*
X155084414Y-92093312D01*
X134515737Y-92093312D01*
X134383475Y-91895368D01*
X134176632Y-91688525D01*
X133933411Y-91526010D01*
X133663158Y-91414068D01*
X133376260Y-91357000D01*
X133083740Y-91357000D01*
X132796842Y-91414068D01*
X132526589Y-91526010D01*
X132283368Y-91688525D01*
X132076525Y-91895368D01*
X131914010Y-92138589D01*
X131802068Y-92408842D01*
X131745000Y-92695740D01*
X131745000Y-92988260D01*
X131802068Y-93275158D01*
X131914010Y-93545411D01*
X132076525Y-93788632D01*
X132283368Y-93995475D01*
X132457760Y-94112000D01*
X132283368Y-94228525D01*
X132076525Y-94435368D01*
X131947204Y-94628911D01*
X131905714Y-94632997D01*
X131762453Y-94676454D01*
X131630424Y-94747026D01*
X131514699Y-94841999D01*
X131490901Y-94870997D01*
X125112899Y-101249000D01*
X122778072Y-101249000D01*
X122778072Y-101159000D01*
X122765812Y-101034518D01*
X122729502Y-100914820D01*
X122670537Y-100804506D01*
X122591185Y-100707815D01*
X122494494Y-100628463D01*
X122384180Y-100569498D01*
X122311620Y-100547487D01*
X122443475Y-100415632D01*
X122605990Y-100172411D01*
X122717932Y-99902158D01*
X122775000Y-99615260D01*
X122775000Y-99322740D01*
X122717932Y-99035842D01*
X122605990Y-98765589D01*
X122443475Y-98522368D01*
X122236632Y-98315525D01*
X122062240Y-98199000D01*
X122236632Y-98082475D01*
X122443475Y-97875632D01*
X122605990Y-97632411D01*
X122717932Y-97362158D01*
X122775000Y-97075260D01*
X122775000Y-96782740D01*
X122717932Y-96495842D01*
X122605990Y-96225589D01*
X122443475Y-95982368D01*
X122236632Y-95775525D01*
X122054466Y-95653805D01*
X122171355Y-95584178D01*
X122387588Y-95389269D01*
X122561641Y-95155920D01*
X122686825Y-94893099D01*
X122731476Y-94745890D01*
X122610155Y-94516000D01*
X121417000Y-94516000D01*
X121417000Y-94536000D01*
X121163000Y-94536000D01*
X121163000Y-94516000D01*
X119969845Y-94516000D01*
X119848524Y-94745890D01*
X119893175Y-94893099D01*
X120018359Y-95155920D01*
X120192412Y-95389269D01*
X120408645Y-95584178D01*
X120525534Y-95653805D01*
X120343368Y-95775525D01*
X120136525Y-95982368D01*
X119974010Y-96225589D01*
X119862068Y-96495842D01*
X119805000Y-96782740D01*
X119805000Y-97075260D01*
X119862068Y-97362158D01*
X119974010Y-97632411D01*
X120136525Y-97875632D01*
X120343368Y-98082475D01*
X120517760Y-98199000D01*
X120343368Y-98315525D01*
X120136525Y-98522368D01*
X119974010Y-98765589D01*
X119862068Y-99035842D01*
X119805000Y-99322740D01*
X119805000Y-99615260D01*
X119862068Y-99902158D01*
X119974010Y-100172411D01*
X120136525Y-100415632D01*
X120268380Y-100547487D01*
X120195820Y-100569498D01*
X120085506Y-100628463D01*
X119988815Y-100707815D01*
X119909463Y-100804506D01*
X119850498Y-100914820D01*
X119814188Y-101034518D01*
X119801928Y-101159000D01*
X117764160Y-101159000D01*
X117764160Y-94032110D01*
X119848524Y-94032110D01*
X119969845Y-94262000D01*
X121163000Y-94262000D01*
X121163000Y-93068186D01*
X121417000Y-93068186D01*
X121417000Y-94262000D01*
X122610155Y-94262000D01*
X122731476Y-94032110D01*
X122686825Y-93884901D01*
X122561641Y-93622080D01*
X122387588Y-93388731D01*
X122171355Y-93193822D01*
X121921252Y-93044843D01*
X121646891Y-92947519D01*
X121417000Y-93068186D01*
X121163000Y-93068186D01*
X120933109Y-92947519D01*
X120658748Y-93044843D01*
X120408645Y-93193822D01*
X120192412Y-93388731D01*
X120018359Y-93622080D01*
X119893175Y-93884901D01*
X119848524Y-94032110D01*
X117764160Y-94032110D01*
X117764160Y-89156140D01*
X159657180Y-89156140D01*
X159657180Y-91791312D01*
G04 #@! TA.AperFunction,Conductor*
D16*
G36*
X159657180Y-91791312D02*
G01*
X159613436Y-91690917D01*
X159435566Y-91434938D01*
X159211175Y-91218578D01*
X158948886Y-91050152D01*
X158658778Y-90936132D01*
X158352000Y-90880900D01*
X157552000Y-90880900D01*
X157552000Y-92338900D01*
X157572000Y-92338900D01*
X157572000Y-92592900D01*
X157552000Y-92592900D01*
X157552000Y-94050900D01*
X158352000Y-94050900D01*
X158658778Y-93995668D01*
X158948886Y-93881648D01*
X159211175Y-93713222D01*
X159435566Y-93496862D01*
X159613436Y-93240883D01*
X159657180Y-93140488D01*
X159657181Y-103191313D01*
X159613436Y-103090917D01*
X159435566Y-102834938D01*
X159211175Y-102618578D01*
X158948886Y-102450152D01*
X158658778Y-102336132D01*
X158352000Y-102280900D01*
X157552000Y-102280900D01*
X157552000Y-103738900D01*
X157572000Y-103738900D01*
X157572000Y-103992900D01*
X157552000Y-103992900D01*
X157552000Y-105450900D01*
X158352000Y-105450900D01*
X158658778Y-105395668D01*
X158948886Y-105281648D01*
X159211175Y-105113222D01*
X159435566Y-104896862D01*
X159613436Y-104640883D01*
X159657181Y-104540487D01*
X159657181Y-107018220D01*
X117764160Y-107018220D01*
X117764160Y-104238488D01*
X155084414Y-104238488D01*
X155112051Y-104355121D01*
X155236564Y-104640883D01*
X155414434Y-104896862D01*
X155638825Y-105113222D01*
X155901114Y-105281648D01*
X156191222Y-105395668D01*
X156498000Y-105450900D01*
X157298000Y-105450900D01*
X157298000Y-103992900D01*
X155204416Y-103992900D01*
X155084414Y-104238488D01*
X117764160Y-104238488D01*
X117764160Y-101159000D01*
X119801928Y-101159000D01*
X119801928Y-102859000D01*
X119814188Y-102983482D01*
X119850498Y-103103180D01*
X119909463Y-103213494D01*
X119988815Y-103310185D01*
X120085506Y-103389537D01*
X120195820Y-103448502D01*
X120315518Y-103484812D01*
X120440000Y-103497072D01*
X122140000Y-103497072D01*
X122178177Y-103493312D01*
X155084414Y-103493312D01*
X155204416Y-103738900D01*
X157298000Y-103738900D01*
X157298000Y-102280900D01*
X156498000Y-102280900D01*
X156191222Y-102336132D01*
X155901114Y-102450152D01*
X155638825Y-102618578D01*
X155414434Y-102834938D01*
X155236564Y-103090917D01*
X155112051Y-103376679D01*
X155084414Y-103493312D01*
X122178177Y-103493312D01*
X122264482Y-103484812D01*
X122384180Y-103448502D01*
X122494494Y-103389537D01*
X122591185Y-103310185D01*
X122670537Y-103213494D01*
X122729502Y-103103180D01*
X122765812Y-102983482D01*
X122778072Y-102859000D01*
X122778072Y-102769000D01*
X125390378Y-102769000D01*
X125427700Y-102772676D01*
X125465022Y-102769000D01*
X125465033Y-102769000D01*
X125576686Y-102758003D01*
X125719947Y-102714546D01*
X125851976Y-102643974D01*
X125967701Y-102549001D01*
X125991504Y-102519997D01*
X128162313Y-100349188D01*
X156240000Y-100349188D01*
X156240000Y-100582612D01*
X156285539Y-100811552D01*
X156374866Y-101027208D01*
X156504550Y-101221294D01*
X156669606Y-101386350D01*
X156863692Y-101516034D01*
X157079348Y-101605361D01*
X157308288Y-101650900D01*
X157541712Y-101650900D01*
X157770652Y-101605361D01*
X157986308Y-101516034D01*
X158180394Y-101386350D01*
X158345450Y-101221294D01*
X158475134Y-101027208D01*
X158564461Y-100811552D01*
X158610000Y-100582612D01*
X158610000Y-100349188D01*
X158564461Y-100120248D01*
X158475134Y-99904592D01*
X158345450Y-99710506D01*
X158180394Y-99545450D01*
X157986308Y-99415766D01*
X157770652Y-99326439D01*
X157541712Y-99280900D01*
X157308288Y-99280900D01*
X157079348Y-99326439D01*
X156863692Y-99415766D01*
X156669606Y-99545450D01*
X156504550Y-99710506D01*
X156374866Y-99904592D01*
X156285539Y-100120248D01*
X156240000Y-100349188D01*
X128162313Y-100349188D01*
X132129697Y-96381804D01*
X132208380Y-96460487D01*
X132135820Y-96482498D01*
X132025506Y-96541463D01*
X131928815Y-96620815D01*
X131849463Y-96717506D01*
X131790498Y-96827820D01*
X131754188Y-96947518D01*
X131741928Y-97072000D01*
X131741928Y-98772000D01*
X131754188Y-98896482D01*
X131790498Y-99016180D01*
X131849463Y-99126494D01*
X131928815Y-99223185D01*
X132025506Y-99302537D01*
X132135820Y-99361502D01*
X132255518Y-99397812D01*
X132380000Y-99410072D01*
X134080000Y-99410072D01*
X134204482Y-99397812D01*
X134324180Y-99361502D01*
X134434494Y-99302537D01*
X134531185Y-99223185D01*
X134610537Y-99126494D01*
X134669502Y-99016180D01*
X134705812Y-98896482D01*
X134718072Y-98772000D01*
X134718072Y-97072000D01*
X134705812Y-96947518D01*
X134669502Y-96827820D01*
X134610537Y-96717506D01*
X134531185Y-96620815D01*
X134434494Y-96541463D01*
X134324180Y-96482498D01*
X134251620Y-96460487D01*
X134383475Y-96328632D01*
X134545990Y-96085411D01*
X134657932Y-95815158D01*
X134671054Y-95749188D01*
X156240000Y-95749188D01*
X156240000Y-95982612D01*
X156285539Y-96211552D01*
X156374866Y-96427208D01*
X156504550Y-96621294D01*
X156669606Y-96786350D01*
X156863692Y-96916034D01*
X157079348Y-97005361D01*
X157308288Y-97050900D01*
X157541712Y-97050900D01*
X157770652Y-97005361D01*
X157986308Y-96916034D01*
X158180394Y-96786350D01*
X158345450Y-96621294D01*
X158475134Y-96427208D01*
X158564461Y-96211552D01*
X158610000Y-95982612D01*
X158610000Y-95749188D01*
X158564461Y-95520248D01*
X158475134Y-95304592D01*
X158345450Y-95110506D01*
X158180394Y-94945450D01*
X157986308Y-94815766D01*
X157770652Y-94726439D01*
X157541712Y-94680900D01*
X157308288Y-94680900D01*
X157079348Y-94726439D01*
X156863692Y-94815766D01*
X156669606Y-94945450D01*
X156504550Y-95110506D01*
X156374866Y-95304592D01*
X156285539Y-95520248D01*
X156240000Y-95749188D01*
X134671054Y-95749188D01*
X134715000Y-95528260D01*
X134715000Y-95235740D01*
X134657932Y-94948842D01*
X134545990Y-94678589D01*
X134383475Y-94435368D01*
X134176632Y-94228525D01*
X134002240Y-94112000D01*
X134176632Y-93995475D01*
X134383475Y-93788632D01*
X134545990Y-93545411D01*
X134657932Y-93275158D01*
X134715000Y-92988260D01*
X134715000Y-92838488D01*
X155084414Y-92838488D01*
X155112051Y-92955121D01*
X155236564Y-93240883D01*
X155414434Y-93496862D01*
X155638825Y-93713222D01*
X155901114Y-93881648D01*
X156191222Y-93995668D01*
X156498000Y-94050900D01*
X157298000Y-94050900D01*
X157298000Y-92592900D01*
X155204416Y-92592900D01*
X155084414Y-92838488D01*
X134715000Y-92838488D01*
X134715000Y-92695740D01*
X134657932Y-92408842D01*
X134545990Y-92138589D01*
X134515737Y-92093312D01*
X155084414Y-92093312D01*
X155204416Y-92338900D01*
X157298000Y-92338900D01*
X157298000Y-90880900D01*
X156498000Y-90880900D01*
X156191222Y-90936132D01*
X155901114Y-91050152D01*
X155638825Y-91218578D01*
X155414434Y-91434938D01*
X155236564Y-91690917D01*
X155112051Y-91976679D01*
X155084414Y-92093312D01*
X134515737Y-92093312D01*
X134383475Y-91895368D01*
X134176632Y-91688525D01*
X133933411Y-91526010D01*
X133663158Y-91414068D01*
X133376260Y-91357000D01*
X133083740Y-91357000D01*
X132796842Y-91414068D01*
X132526589Y-91526010D01*
X132283368Y-91688525D01*
X132076525Y-91895368D01*
X131914010Y-92138589D01*
X131802068Y-92408842D01*
X131745000Y-92695740D01*
X131745000Y-92988260D01*
X131802068Y-93275158D01*
X131914010Y-93545411D01*
X132076525Y-93788632D01*
X132283368Y-93995475D01*
X132457760Y-94112000D01*
X132283368Y-94228525D01*
X132076525Y-94435368D01*
X131947204Y-94628911D01*
X131905714Y-94632997D01*
X131762453Y-94676454D01*
X131630424Y-94747026D01*
X131514699Y-94841999D01*
X131490901Y-94870997D01*
X125112899Y-101249000D01*
X122778072Y-101249000D01*
X122778072Y-101159000D01*
X122765812Y-101034518D01*
X122729502Y-100914820D01*
X122670537Y-100804506D01*
X122591185Y-100707815D01*
X122494494Y-100628463D01*
X122384180Y-100569498D01*
X122311620Y-100547487D01*
X122443475Y-100415632D01*
X122605990Y-100172411D01*
X122717932Y-99902158D01*
X122775000Y-99615260D01*
X122775000Y-99322740D01*
X122717932Y-99035842D01*
X122605990Y-98765589D01*
X122443475Y-98522368D01*
X122236632Y-98315525D01*
X122062240Y-98199000D01*
X122236632Y-98082475D01*
X122443475Y-97875632D01*
X122605990Y-97632411D01*
X122717932Y-97362158D01*
X122775000Y-97075260D01*
X122775000Y-96782740D01*
X122717932Y-96495842D01*
X122605990Y-96225589D01*
X122443475Y-95982368D01*
X122236632Y-95775525D01*
X122054466Y-95653805D01*
X122171355Y-95584178D01*
X122387588Y-95389269D01*
X122561641Y-95155920D01*
X122686825Y-94893099D01*
X122731476Y-94745890D01*
X122610155Y-94516000D01*
X121417000Y-94516000D01*
X121417000Y-94536000D01*
X121163000Y-94536000D01*
X121163000Y-94516000D01*
X119969845Y-94516000D01*
X119848524Y-94745890D01*
X119893175Y-94893099D01*
X120018359Y-95155920D01*
X120192412Y-95389269D01*
X120408645Y-95584178D01*
X120525534Y-95653805D01*
X120343368Y-95775525D01*
X120136525Y-95982368D01*
X119974010Y-96225589D01*
X119862068Y-96495842D01*
X119805000Y-96782740D01*
X119805000Y-97075260D01*
X119862068Y-97362158D01*
X119974010Y-97632411D01*
X120136525Y-97875632D01*
X120343368Y-98082475D01*
X120517760Y-98199000D01*
X120343368Y-98315525D01*
X120136525Y-98522368D01*
X119974010Y-98765589D01*
X119862068Y-99035842D01*
X119805000Y-99322740D01*
X119805000Y-99615260D01*
X119862068Y-99902158D01*
X119974010Y-100172411D01*
X120136525Y-100415632D01*
X120268380Y-100547487D01*
X120195820Y-100569498D01*
X120085506Y-100628463D01*
X119988815Y-100707815D01*
X119909463Y-100804506D01*
X119850498Y-100914820D01*
X119814188Y-101034518D01*
X119801928Y-101159000D01*
X117764160Y-101159000D01*
X117764160Y-94032110D01*
X119848524Y-94032110D01*
X119969845Y-94262000D01*
X121163000Y-94262000D01*
X121163000Y-93068186D01*
X121417000Y-93068186D01*
X121417000Y-94262000D01*
X122610155Y-94262000D01*
X122731476Y-94032110D01*
X122686825Y-93884901D01*
X122561641Y-93622080D01*
X122387588Y-93388731D01*
X122171355Y-93193822D01*
X121921252Y-93044843D01*
X121646891Y-92947519D01*
X121417000Y-93068186D01*
X121163000Y-93068186D01*
X120933109Y-92947519D01*
X120658748Y-93044843D01*
X120408645Y-93193822D01*
X120192412Y-93388731D01*
X120018359Y-93622080D01*
X119893175Y-93884901D01*
X119848524Y-94032110D01*
X117764160Y-94032110D01*
X117764160Y-89156140D01*
X159657180Y-89156140D01*
X159657180Y-91791312D01*
G37*
G04 #@! TD.AperFunction*
M02*
