G04 #@! TF.GenerationSoftware,KiCad,Pcbnew,(5.1.10)-1*
G04 #@! TF.CreationDate,2021-06-05T02:46:31+08:00*
G04 #@! TF.ProjectId,ch340,63683334-302e-46b6-9963-61645f706362,rev?*
G04 #@! TF.SameCoordinates,Original*
G04 #@! TF.FileFunction,Legend,Top*
G04 #@! TF.FilePolarity,Positive*
%FSLAX46Y46*%
G04 Gerber Fmt 4.6, Leading zero omitted, Abs format (unit mm)*
G04 Created by KiCad (PCBNEW (5.1.10)-1) date 2021-06-05 02:46:31*
%MOMM*%
%LPD*%
G01*
G04 APERTURE LIST*
%ADD10C,0.150000*%
%ADD11C,0.120000*%
G04 APERTURE END LIST*
D10*
X133075703Y-89797640D02*
X132599513Y-89797640D01*
X132551894Y-90273831D01*
X132599513Y-90226212D01*
X132694751Y-90178593D01*
X132932846Y-90178593D01*
X133028084Y-90226212D01*
X133075703Y-90273831D01*
X133123322Y-90369069D01*
X133123322Y-90607164D01*
X133075703Y-90702402D01*
X133028084Y-90750021D01*
X132932846Y-90797640D01*
X132694751Y-90797640D01*
X132599513Y-90750021D01*
X132551894Y-90702402D01*
X133409037Y-89797640D02*
X133742370Y-90797640D01*
X134075703Y-89797640D01*
X131779829Y-99990660D02*
X132398877Y-99990660D01*
X132065543Y-100371613D01*
X132208400Y-100371613D01*
X132303639Y-100419232D01*
X132351258Y-100466851D01*
X132398877Y-100562089D01*
X132398877Y-100800184D01*
X132351258Y-100895422D01*
X132303639Y-100943041D01*
X132208400Y-100990660D01*
X131922686Y-100990660D01*
X131827448Y-100943041D01*
X131779829Y-100895422D01*
X132827448Y-100895422D02*
X132875067Y-100943041D01*
X132827448Y-100990660D01*
X132779829Y-100943041D01*
X132827448Y-100895422D01*
X132827448Y-100990660D01*
X133208400Y-99990660D02*
X133827448Y-99990660D01*
X133494115Y-100371613D01*
X133636972Y-100371613D01*
X133732210Y-100419232D01*
X133779829Y-100466851D01*
X133827448Y-100562089D01*
X133827448Y-100800184D01*
X133779829Y-100895422D01*
X133732210Y-100943041D01*
X133636972Y-100990660D01*
X133351258Y-100990660D01*
X133256020Y-100943041D01*
X133208400Y-100895422D01*
X134113162Y-99990660D02*
X134446496Y-100990660D01*
X134779829Y-99990660D01*
X123201180Y-104376053D02*
X124201180Y-104042720D01*
X123201180Y-103709386D01*
X124105942Y-102804624D02*
X124153561Y-102852243D01*
X124201180Y-102995100D01*
X124201180Y-103090339D01*
X124153561Y-103233196D01*
X124058323Y-103328434D01*
X123963085Y-103376053D01*
X123772609Y-103423672D01*
X123629752Y-103423672D01*
X123439276Y-103376053D01*
X123344038Y-103328434D01*
X123248800Y-103233196D01*
X123201180Y-103090339D01*
X123201180Y-102995100D01*
X123248800Y-102852243D01*
X123296419Y-102804624D01*
X124105942Y-101804624D02*
X124153561Y-101852243D01*
X124201180Y-101995100D01*
X124201180Y-102090339D01*
X124153561Y-102233196D01*
X124058323Y-102328434D01*
X123963085Y-102376053D01*
X123772609Y-102423672D01*
X123629752Y-102423672D01*
X123439276Y-102376053D01*
X123344038Y-102328434D01*
X123248800Y-102233196D01*
X123201180Y-102090339D01*
X123201180Y-101995100D01*
X123248800Y-101852243D01*
X123296419Y-101804624D01*
X123135140Y-100230844D02*
X123135140Y-99659416D01*
X124135140Y-99945130D02*
X123135140Y-99945130D01*
X123135140Y-99421320D02*
X124135140Y-98754654D01*
X123135140Y-98754654D02*
X124135140Y-99421320D01*
X124069100Y-97100686D02*
X123592910Y-97434020D01*
X124069100Y-97672115D02*
X123069100Y-97672115D01*
X123069100Y-97291162D01*
X123116720Y-97195924D01*
X123164339Y-97148305D01*
X123259577Y-97100686D01*
X123402434Y-97100686D01*
X123497672Y-97148305D01*
X123545291Y-97195924D01*
X123592910Y-97291162D01*
X123592910Y-97672115D01*
X123069100Y-96767353D02*
X124069100Y-96100686D01*
X123069100Y-96100686D02*
X124069100Y-96767353D01*
X123228480Y-94320264D02*
X123180860Y-94415502D01*
X123180860Y-94558360D01*
X123228480Y-94701217D01*
X123323718Y-94796455D01*
X123418956Y-94844074D01*
X123609432Y-94891693D01*
X123752289Y-94891693D01*
X123942765Y-94844074D01*
X124038003Y-94796455D01*
X124133241Y-94701217D01*
X124180860Y-94558360D01*
X124180860Y-94463121D01*
X124133241Y-94320264D01*
X124085622Y-94272645D01*
X123752289Y-94272645D01*
X123752289Y-94463121D01*
X124180860Y-93844074D02*
X123180860Y-93844074D01*
X124180860Y-93272645D01*
X123180860Y-93272645D01*
X124180860Y-92796455D02*
X123180860Y-92796455D01*
X123180860Y-92558360D01*
X123228480Y-92415502D01*
X123323718Y-92320264D01*
X123418956Y-92272645D01*
X123609432Y-92225026D01*
X123752289Y-92225026D01*
X123942765Y-92272645D01*
X124038003Y-92320264D01*
X124133241Y-92415502D01*
X124180860Y-92558360D01*
X124180860Y-92796455D01*
D11*
X143976420Y-92342200D02*
X144257580Y-92342200D01*
X143976420Y-93362200D02*
X144257580Y-93362200D01*
X148184420Y-104475000D02*
X148465580Y-104475000D01*
X148184420Y-103455000D02*
X148465580Y-103455000D01*
X148080164Y-101410000D02*
X148295836Y-101410000D01*
X148080164Y-102130000D02*
X148295836Y-102130000D01*
X137997164Y-93212200D02*
X138212836Y-93212200D01*
X137997164Y-92492200D02*
X138212836Y-92492200D01*
X149047000Y-96686700D02*
X146762000Y-96686700D01*
X146762000Y-96686700D02*
X146762000Y-98156700D01*
X146762000Y-98156700D02*
X149047000Y-98156700D01*
X127076000Y-98662800D02*
X124791000Y-98662800D01*
X124791000Y-98662800D02*
X124791000Y-100132800D01*
X124791000Y-100132800D02*
X127076000Y-100132800D01*
X124791000Y-97691800D02*
X127076000Y-97691800D01*
X124791000Y-96221800D02*
X124791000Y-97691800D01*
X127076000Y-96221800D02*
X124791000Y-96221800D01*
X156305000Y-93765900D02*
X155550000Y-93765900D01*
X159475000Y-104310900D02*
X160525000Y-104310900D01*
X159475000Y-92020900D02*
X160525000Y-92020900D01*
X156305000Y-93765900D02*
X156305000Y-102565900D01*
X122560000Y-103279000D02*
X121290000Y-103279000D01*
X122560000Y-102009000D02*
X122560000Y-103279000D01*
X120247071Y-94009000D02*
X119850000Y-94009000D01*
X120247071Y-94769000D02*
X119850000Y-94769000D01*
X111190000Y-94009000D02*
X117190000Y-94009000D01*
X111190000Y-94769000D02*
X111190000Y-94009000D01*
X117190000Y-94769000D02*
X111190000Y-94769000D01*
X119850000Y-95659000D02*
X117190000Y-95659000D01*
X120247071Y-96549000D02*
X119850000Y-96549000D01*
X120247071Y-97309000D02*
X119850000Y-97309000D01*
X111190000Y-96549000D02*
X117190000Y-96549000D01*
X111190000Y-97309000D02*
X111190000Y-96549000D01*
X117190000Y-97309000D02*
X111190000Y-97309000D01*
X119850000Y-98199000D02*
X117190000Y-98199000D01*
X120247071Y-99089000D02*
X119850000Y-99089000D01*
X120247071Y-99849000D02*
X119850000Y-99849000D01*
X111190000Y-99089000D02*
X117190000Y-99089000D01*
X111190000Y-99849000D02*
X111190000Y-99089000D01*
X117190000Y-99849000D02*
X111190000Y-99849000D01*
X119850000Y-100739000D02*
X117190000Y-100739000D01*
X120180000Y-101629000D02*
X119850000Y-101629000D01*
X120180000Y-102389000D02*
X119850000Y-102389000D01*
X117190000Y-101729000D02*
X111190000Y-101729000D01*
X117190000Y-101849000D02*
X111190000Y-101849000D01*
X117190000Y-101969000D02*
X111190000Y-101969000D01*
X117190000Y-102089000D02*
X111190000Y-102089000D01*
X117190000Y-102209000D02*
X111190000Y-102209000D01*
X117190000Y-102329000D02*
X111190000Y-102329000D01*
X111190000Y-101629000D02*
X117190000Y-101629000D01*
X111190000Y-102389000D02*
X111190000Y-101629000D01*
X117190000Y-102389000D02*
X111190000Y-102389000D01*
X117190000Y-103339000D02*
X119850000Y-103339000D01*
X117190000Y-93059000D02*
X117190000Y-103339000D01*
X119850000Y-93059000D02*
X117190000Y-93059000D01*
X119850000Y-103339000D02*
X119850000Y-93059000D01*
X134560000Y-99252000D02*
X133230000Y-99252000D01*
X134560000Y-97922000D02*
X134560000Y-99252000D01*
X134560000Y-96652000D02*
X131900000Y-96652000D01*
X131900000Y-96652000D02*
X131900000Y-91512000D01*
X134560000Y-96652000D02*
X134560000Y-91512000D01*
X134560000Y-91512000D02*
X131900000Y-91512000D01*
X132957359Y-104434000D02*
X133264641Y-104434000D01*
X132957359Y-103674000D02*
X133264641Y-103674000D01*
X132904359Y-102101000D02*
X133211641Y-102101000D01*
X132904359Y-102861000D02*
X133211641Y-102861000D01*
X148042742Y-99144500D02*
X148517258Y-99144500D01*
X148042742Y-100189500D02*
X148517258Y-100189500D01*
X126038742Y-102036500D02*
X126513258Y-102036500D01*
X126038742Y-100991500D02*
X126513258Y-100991500D01*
X126038742Y-95419400D02*
X126513258Y-95419400D01*
X126038742Y-94374400D02*
X126513258Y-94374400D01*
X141003000Y-95128000D02*
X137553000Y-95128000D01*
X141003000Y-95128000D02*
X142953000Y-95128000D01*
X141003000Y-105248000D02*
X139053000Y-105248000D01*
X141003000Y-105248000D02*
X142953000Y-105248000D01*
X150300000Y-94510900D02*
X148840000Y-94510900D01*
X150300000Y-91350900D02*
X148140000Y-91350900D01*
X150300000Y-91350900D02*
X150300000Y-92280900D01*
X150300000Y-94510900D02*
X150300000Y-93580900D01*
D10*
X143950333Y-91779342D02*
X143902714Y-91826961D01*
X143759857Y-91874580D01*
X143664619Y-91874580D01*
X143521761Y-91826961D01*
X143426523Y-91731723D01*
X143378904Y-91636485D01*
X143331285Y-91446009D01*
X143331285Y-91303152D01*
X143378904Y-91112676D01*
X143426523Y-91017438D01*
X143521761Y-90922200D01*
X143664619Y-90874580D01*
X143759857Y-90874580D01*
X143902714Y-90922200D01*
X143950333Y-90969819D01*
X144902714Y-91874580D02*
X144331285Y-91874580D01*
X144617000Y-91874580D02*
X144617000Y-90874580D01*
X144521761Y-91017438D01*
X144426523Y-91112676D01*
X144331285Y-91160295D01*
X150968033Y-104395802D02*
X150920414Y-104443421D01*
X150777557Y-104491040D01*
X150682319Y-104491040D01*
X150539461Y-104443421D01*
X150444223Y-104348183D01*
X150396604Y-104252945D01*
X150348985Y-104062469D01*
X150348985Y-103919612D01*
X150396604Y-103729136D01*
X150444223Y-103633898D01*
X150539461Y-103538660D01*
X150682319Y-103491040D01*
X150777557Y-103491040D01*
X150920414Y-103538660D01*
X150968033Y-103586279D01*
X151348985Y-103586279D02*
X151396604Y-103538660D01*
X151491842Y-103491040D01*
X151729938Y-103491040D01*
X151825176Y-103538660D01*
X151872795Y-103586279D01*
X151920414Y-103681517D01*
X151920414Y-103776755D01*
X151872795Y-103919612D01*
X151301366Y-104491040D01*
X151920414Y-104491040D01*
X150912153Y-102211002D02*
X150864534Y-102258621D01*
X150721677Y-102306240D01*
X150626439Y-102306240D01*
X150483581Y-102258621D01*
X150388343Y-102163383D01*
X150340724Y-102068145D01*
X150293105Y-101877669D01*
X150293105Y-101734812D01*
X150340724Y-101544336D01*
X150388343Y-101449098D01*
X150483581Y-101353860D01*
X150626439Y-101306240D01*
X150721677Y-101306240D01*
X150864534Y-101353860D01*
X150912153Y-101401479D01*
X151245486Y-101306240D02*
X151864534Y-101306240D01*
X151531200Y-101687193D01*
X151674058Y-101687193D01*
X151769296Y-101734812D01*
X151816915Y-101782431D01*
X151864534Y-101877669D01*
X151864534Y-102115764D01*
X151816915Y-102211002D01*
X151769296Y-102258621D01*
X151674058Y-102306240D01*
X151388343Y-102306240D01*
X151293105Y-102258621D01*
X151245486Y-102211002D01*
X137938333Y-92049342D02*
X137890714Y-92096961D01*
X137747857Y-92144580D01*
X137652619Y-92144580D01*
X137509761Y-92096961D01*
X137414523Y-92001723D01*
X137366904Y-91906485D01*
X137319285Y-91716009D01*
X137319285Y-91573152D01*
X137366904Y-91382676D01*
X137414523Y-91287438D01*
X137509761Y-91192200D01*
X137652619Y-91144580D01*
X137747857Y-91144580D01*
X137890714Y-91192200D01*
X137938333Y-91239819D01*
X138795476Y-91477914D02*
X138795476Y-92144580D01*
X138557380Y-91096961D02*
X138319285Y-91811247D01*
X138938333Y-91811247D01*
X150388984Y-98031520D02*
X150388984Y-97031520D01*
X150627080Y-97031520D01*
X150769937Y-97079140D01*
X150865175Y-97174378D01*
X150912794Y-97269616D01*
X150960413Y-97460092D01*
X150960413Y-97602949D01*
X150912794Y-97793425D01*
X150865175Y-97888663D01*
X150769937Y-97983901D01*
X150627080Y-98031520D01*
X150388984Y-98031520D01*
X151912794Y-98031520D02*
X151341365Y-98031520D01*
X151627080Y-98031520D02*
X151627080Y-97031520D01*
X151531841Y-97174378D01*
X151436603Y-97269616D01*
X151341365Y-97317235D01*
X128461444Y-99931460D02*
X128461444Y-98931460D01*
X128699540Y-98931460D01*
X128842397Y-98979080D01*
X128937635Y-99074318D01*
X128985254Y-99169556D01*
X129032873Y-99360032D01*
X129032873Y-99502889D01*
X128985254Y-99693365D01*
X128937635Y-99788603D01*
X128842397Y-99883841D01*
X128699540Y-99931460D01*
X128461444Y-99931460D01*
X129413825Y-99026699D02*
X129461444Y-98979080D01*
X129556682Y-98931460D01*
X129794778Y-98931460D01*
X129890016Y-98979080D01*
X129937635Y-99026699D01*
X129985254Y-99121937D01*
X129985254Y-99217175D01*
X129937635Y-99360032D01*
X129366206Y-99931460D01*
X129985254Y-99931460D01*
X128509704Y-97437120D02*
X128509704Y-96437120D01*
X128747800Y-96437120D01*
X128890657Y-96484740D01*
X128985895Y-96579978D01*
X129033514Y-96675216D01*
X129081133Y-96865692D01*
X129081133Y-97008549D01*
X129033514Y-97199025D01*
X128985895Y-97294263D01*
X128890657Y-97389501D01*
X128747800Y-97437120D01*
X128509704Y-97437120D01*
X129414466Y-96437120D02*
X130033514Y-96437120D01*
X129700180Y-96818073D01*
X129843038Y-96818073D01*
X129938276Y-96865692D01*
X129985895Y-96913311D01*
X130033514Y-97008549D01*
X130033514Y-97246644D01*
X129985895Y-97341882D01*
X129938276Y-97389501D01*
X129843038Y-97437120D01*
X129557323Y-97437120D01*
X129462085Y-97389501D01*
X129414466Y-97341882D01*
X157091666Y-89618280D02*
X157091666Y-90332566D01*
X157044047Y-90475423D01*
X156948809Y-90570661D01*
X156805952Y-90618280D01*
X156710714Y-90618280D01*
X158091666Y-90618280D02*
X157520238Y-90618280D01*
X157805952Y-90618280D02*
X157805952Y-89618280D01*
X157710714Y-89761138D01*
X157615476Y-89856376D01*
X157520238Y-89903995D01*
X119592686Y-104473820D02*
X119592686Y-105188106D01*
X119545067Y-105330963D01*
X119449829Y-105426201D01*
X119306972Y-105473820D01*
X119211734Y-105473820D01*
X120021258Y-104569059D02*
X120068877Y-104521440D01*
X120164115Y-104473820D01*
X120402210Y-104473820D01*
X120497448Y-104521440D01*
X120545067Y-104569059D01*
X120592686Y-104664297D01*
X120592686Y-104759535D01*
X120545067Y-104902392D01*
X119973639Y-105473820D01*
X120592686Y-105473820D01*
X135034420Y-95859733D02*
X135748706Y-95859733D01*
X135891563Y-95907352D01*
X135986801Y-96002590D01*
X136034420Y-96145447D01*
X136034420Y-96240685D01*
X136034420Y-95383542D02*
X135034420Y-95383542D01*
X135034420Y-95002590D01*
X135082040Y-94907352D01*
X135129659Y-94859733D01*
X135224897Y-94812114D01*
X135367754Y-94812114D01*
X135462992Y-94859733D01*
X135510611Y-94907352D01*
X135558230Y-95002590D01*
X135558230Y-95383542D01*
X136034420Y-93859733D02*
X136034420Y-94431161D01*
X136034420Y-94145447D02*
X135034420Y-94145447D01*
X135177278Y-94240685D01*
X135272516Y-94335923D01*
X135320135Y-94431161D01*
X135341953Y-104468280D02*
X135008620Y-103992090D01*
X134770524Y-104468280D02*
X134770524Y-103468280D01*
X135151477Y-103468280D01*
X135246715Y-103515900D01*
X135294334Y-103563519D01*
X135341953Y-103658757D01*
X135341953Y-103801614D01*
X135294334Y-103896852D01*
X135246715Y-103944471D01*
X135151477Y-103992090D01*
X134770524Y-103992090D01*
X136294334Y-104468280D02*
X135722905Y-104468280D01*
X136008620Y-104468280D02*
X136008620Y-103468280D01*
X135913381Y-103611138D01*
X135818143Y-103706376D01*
X135722905Y-103753995D01*
X135304333Y-102902900D02*
X134971000Y-102426710D01*
X134732904Y-102902900D02*
X134732904Y-101902900D01*
X135113857Y-101902900D01*
X135209095Y-101950520D01*
X135256714Y-101998139D01*
X135304333Y-102093377D01*
X135304333Y-102236234D01*
X135256714Y-102331472D01*
X135209095Y-102379091D01*
X135113857Y-102426710D01*
X134732904Y-102426710D01*
X135685285Y-101998139D02*
X135732904Y-101950520D01*
X135828142Y-101902900D01*
X136066238Y-101902900D01*
X136161476Y-101950520D01*
X136209095Y-101998139D01*
X136256714Y-102093377D01*
X136256714Y-102188615D01*
X136209095Y-102331472D01*
X135637666Y-102902900D01*
X136256714Y-102902900D01*
X150955593Y-100248920D02*
X150622260Y-99772730D01*
X150384164Y-100248920D02*
X150384164Y-99248920D01*
X150765117Y-99248920D01*
X150860355Y-99296540D01*
X150907974Y-99344159D01*
X150955593Y-99439397D01*
X150955593Y-99582254D01*
X150907974Y-99677492D01*
X150860355Y-99725111D01*
X150765117Y-99772730D01*
X150384164Y-99772730D01*
X151288926Y-99248920D02*
X151907974Y-99248920D01*
X151574640Y-99629873D01*
X151717498Y-99629873D01*
X151812736Y-99677492D01*
X151860355Y-99725111D01*
X151907974Y-99820349D01*
X151907974Y-100058444D01*
X151860355Y-100153682D01*
X151812736Y-100201301D01*
X151717498Y-100248920D01*
X151431783Y-100248920D01*
X151336545Y-100201301D01*
X151288926Y-100153682D01*
X129144633Y-102070520D02*
X128811300Y-101594330D01*
X128573204Y-102070520D02*
X128573204Y-101070520D01*
X128954157Y-101070520D01*
X129049395Y-101118140D01*
X129097014Y-101165759D01*
X129144633Y-101260997D01*
X129144633Y-101403854D01*
X129097014Y-101499092D01*
X129049395Y-101546711D01*
X128954157Y-101594330D01*
X128573204Y-101594330D01*
X130001776Y-101403854D02*
X130001776Y-102070520D01*
X129763680Y-101022901D02*
X129525585Y-101737187D01*
X130144633Y-101737187D01*
X129010013Y-95392460D02*
X128676680Y-94916270D01*
X128438584Y-95392460D02*
X128438584Y-94392460D01*
X128819537Y-94392460D01*
X128914775Y-94440080D01*
X128962394Y-94487699D01*
X129010013Y-94582937D01*
X129010013Y-94725794D01*
X128962394Y-94821032D01*
X128914775Y-94868651D01*
X128819537Y-94916270D01*
X128438584Y-94916270D01*
X129914775Y-94392460D02*
X129438584Y-94392460D01*
X129390965Y-94868651D01*
X129438584Y-94821032D01*
X129533822Y-94773413D01*
X129771918Y-94773413D01*
X129867156Y-94821032D01*
X129914775Y-94868651D01*
X129962394Y-94963889D01*
X129962394Y-95201984D01*
X129914775Y-95297222D01*
X129867156Y-95344841D01*
X129771918Y-95392460D01*
X129533822Y-95392460D01*
X129438584Y-95344841D01*
X129390965Y-95297222D01*
X140241095Y-93740380D02*
X140241095Y-94549904D01*
X140288714Y-94645142D01*
X140336333Y-94692761D01*
X140431571Y-94740380D01*
X140622047Y-94740380D01*
X140717285Y-94692761D01*
X140764904Y-94645142D01*
X140812523Y-94549904D01*
X140812523Y-93740380D01*
X141812523Y-94740380D02*
X141241095Y-94740380D01*
X141526809Y-94740380D02*
X141526809Y-93740380D01*
X141431571Y-93883238D01*
X141336333Y-93978476D01*
X141241095Y-94026095D01*
X148778095Y-89883280D02*
X148778095Y-90692804D01*
X148825714Y-90788042D01*
X148873333Y-90835661D01*
X148968571Y-90883280D01*
X149159047Y-90883280D01*
X149254285Y-90835661D01*
X149301904Y-90788042D01*
X149349523Y-90692804D01*
X149349523Y-89883280D01*
X149778095Y-89978519D02*
X149825714Y-89930900D01*
X149920952Y-89883280D01*
X150159047Y-89883280D01*
X150254285Y-89930900D01*
X150301904Y-89978519D01*
X150349523Y-90073757D01*
X150349523Y-90168995D01*
X150301904Y-90311852D01*
X149730476Y-90883280D01*
X150349523Y-90883280D01*
M02*
