G04 #@! TF.GenerationSoftware,KiCad,Pcbnew,(5.1.10)-1*
G04 #@! TF.CreationDate,2021-06-19T20:54:27+08:00*
G04 #@! TF.ProjectId,ch340,63683334-302e-46b6-9963-61645f706362,rev?*
G04 #@! TF.SameCoordinates,Original*
G04 #@! TF.FileFunction,Legend,Top*
G04 #@! TF.FilePolarity,Positive*
%FSLAX46Y46*%
G04 Gerber Fmt 4.6, Leading zero omitted, Abs format (unit mm)*
G04 Created by KiCad (PCBNEW (5.1.10)-1) date 2021-06-19 20:54:27*
%MOMM*%
%LPD*%
G01*
G04 APERTURE LIST*
%ADD10C,0.150000*%
%ADD11C,0.120000*%
G04 APERTURE END LIST*
D10*
X145422643Y-91855040D02*
X144946453Y-91855040D01*
X144898834Y-92331231D01*
X144946453Y-92283612D01*
X145041691Y-92235993D01*
X145279786Y-92235993D01*
X145375024Y-92283612D01*
X145422643Y-92331231D01*
X145470262Y-92426469D01*
X145470262Y-92664564D01*
X145422643Y-92759802D01*
X145375024Y-92807421D01*
X145279786Y-92855040D01*
X145041691Y-92855040D01*
X144946453Y-92807421D01*
X144898834Y-92759802D01*
X145755977Y-91855040D02*
X146089310Y-92855040D01*
X146422643Y-91855040D01*
X144126769Y-102048060D02*
X144745817Y-102048060D01*
X144412483Y-102429013D01*
X144555340Y-102429013D01*
X144650579Y-102476632D01*
X144698198Y-102524251D01*
X144745817Y-102619489D01*
X144745817Y-102857584D01*
X144698198Y-102952822D01*
X144650579Y-103000441D01*
X144555340Y-103048060D01*
X144269626Y-103048060D01*
X144174388Y-103000441D01*
X144126769Y-102952822D01*
X145174388Y-102952822D02*
X145222007Y-103000441D01*
X145174388Y-103048060D01*
X145126769Y-103000441D01*
X145174388Y-102952822D01*
X145174388Y-103048060D01*
X145555340Y-102048060D02*
X146174388Y-102048060D01*
X145841055Y-102429013D01*
X145983912Y-102429013D01*
X146079150Y-102476632D01*
X146126769Y-102524251D01*
X146174388Y-102619489D01*
X146174388Y-102857584D01*
X146126769Y-102952822D01*
X146079150Y-103000441D01*
X145983912Y-103048060D01*
X145698198Y-103048060D01*
X145602960Y-103000441D01*
X145555340Y-102952822D01*
X146460102Y-102048060D02*
X146793436Y-103048060D01*
X147126769Y-102048060D01*
X135352380Y-106033333D02*
X136352380Y-105700000D01*
X135352380Y-105366666D01*
X136257142Y-104461904D02*
X136304761Y-104509523D01*
X136352380Y-104652380D01*
X136352380Y-104747619D01*
X136304761Y-104890476D01*
X136209523Y-104985714D01*
X136114285Y-105033333D01*
X135923809Y-105080952D01*
X135780952Y-105080952D01*
X135590476Y-105033333D01*
X135495238Y-104985714D01*
X135400000Y-104890476D01*
X135352380Y-104747619D01*
X135352380Y-104652380D01*
X135400000Y-104509523D01*
X135447619Y-104461904D01*
X136257142Y-103461904D02*
X136304761Y-103509523D01*
X136352380Y-103652380D01*
X136352380Y-103747619D01*
X136304761Y-103890476D01*
X136209523Y-103985714D01*
X136114285Y-104033333D01*
X135923809Y-104080952D01*
X135780952Y-104080952D01*
X135590476Y-104033333D01*
X135495238Y-103985714D01*
X135400000Y-103890476D01*
X135352380Y-103747619D01*
X135352380Y-103652380D01*
X135400000Y-103509523D01*
X135447619Y-103461904D01*
X135252380Y-102288244D02*
X135252380Y-101716816D01*
X136252380Y-102002530D02*
X135252380Y-102002530D01*
X135252380Y-101478720D02*
X136252380Y-100812054D01*
X135252380Y-100812054D02*
X136252380Y-101478720D01*
X136252380Y-99166666D02*
X135776190Y-99500000D01*
X136252380Y-99738095D02*
X135252380Y-99738095D01*
X135252380Y-99357142D01*
X135300000Y-99261904D01*
X135347619Y-99214285D01*
X135442857Y-99166666D01*
X135585714Y-99166666D01*
X135680952Y-99214285D01*
X135728571Y-99261904D01*
X135776190Y-99357142D01*
X135776190Y-99738095D01*
X135252380Y-98833333D02*
X136252380Y-98166666D01*
X135252380Y-98166666D02*
X136252380Y-98833333D01*
X135300000Y-96661904D02*
X135252380Y-96757142D01*
X135252380Y-96900000D01*
X135300000Y-97042857D01*
X135395238Y-97138095D01*
X135490476Y-97185714D01*
X135680952Y-97233333D01*
X135823809Y-97233333D01*
X136014285Y-97185714D01*
X136109523Y-97138095D01*
X136204761Y-97042857D01*
X136252380Y-96900000D01*
X136252380Y-96804761D01*
X136204761Y-96661904D01*
X136157142Y-96614285D01*
X135823809Y-96614285D01*
X135823809Y-96804761D01*
X136252380Y-96185714D02*
X135252380Y-96185714D01*
X136252380Y-95614285D01*
X135252380Y-95614285D01*
X136252380Y-95138095D02*
X135252380Y-95138095D01*
X135252380Y-94900000D01*
X135300000Y-94757142D01*
X135395238Y-94661904D01*
X135490476Y-94614285D01*
X135680952Y-94566666D01*
X135823809Y-94566666D01*
X136014285Y-94614285D01*
X136109523Y-94661904D01*
X136204761Y-94757142D01*
X136252380Y-94900000D01*
X136252380Y-95138095D01*
D11*
X162647000Y-96568300D02*
X162647000Y-95638300D01*
X162647000Y-93408300D02*
X162647000Y-94338300D01*
X162647000Y-93408300D02*
X159487000Y-93408300D01*
X162647000Y-96568300D02*
X161187000Y-96568300D01*
X138368276Y-96431800D02*
X138877724Y-96431800D01*
X138368276Y-97476800D02*
X138877724Y-97476800D01*
X138368276Y-103048500D02*
X138877724Y-103048500D01*
X138368276Y-104093500D02*
X138877724Y-104093500D01*
X160372276Y-101201500D02*
X160881724Y-101201500D01*
X160372276Y-102246500D02*
X160881724Y-102246500D01*
X145150276Y-104015500D02*
X145659724Y-104015500D01*
X145150276Y-105060500D02*
X145659724Y-105060500D01*
X145203276Y-105588500D02*
X145712724Y-105588500D01*
X145203276Y-106633500D02*
X145712724Y-106633500D01*
X139423000Y-98279200D02*
X136963000Y-98279200D01*
X136963000Y-98279200D02*
X136963000Y-99749200D01*
X136963000Y-99749200D02*
X139423000Y-99749200D01*
X139423000Y-100720000D02*
X136963000Y-100720000D01*
X136963000Y-100720000D02*
X136963000Y-102190000D01*
X136963000Y-102190000D02*
X139423000Y-102190000D01*
X161394000Y-98744100D02*
X158934000Y-98744100D01*
X158934000Y-98744100D02*
X158934000Y-100214100D01*
X158934000Y-100214100D02*
X161394000Y-100214100D01*
X150305733Y-94399600D02*
X150598267Y-94399600D01*
X150305733Y-95419600D02*
X150598267Y-95419600D01*
X160388733Y-103317000D02*
X160681267Y-103317000D01*
X160388733Y-104337000D02*
X160681267Y-104337000D01*
X160525733Y-105512000D02*
X160818267Y-105512000D01*
X160525733Y-106532000D02*
X160818267Y-106532000D01*
X156317733Y-94399600D02*
X156610267Y-94399600D01*
X156317733Y-95419600D02*
X156610267Y-95419600D01*
X168652000Y-95823000D02*
X168652000Y-104623000D01*
X171822000Y-94078000D02*
X172872000Y-94078000D01*
X171822000Y-106368000D02*
X172872000Y-106368000D01*
X168652000Y-95823000D02*
X167897000Y-95823000D01*
X132197000Y-105396000D02*
X132197000Y-95116000D01*
X132197000Y-95116000D02*
X129537000Y-95116000D01*
X129537000Y-95116000D02*
X129537000Y-105396000D01*
X129537000Y-105396000D02*
X132197000Y-105396000D01*
X129537000Y-104446000D02*
X123537000Y-104446000D01*
X123537000Y-104446000D02*
X123537000Y-103686000D01*
X123537000Y-103686000D02*
X129537000Y-103686000D01*
X129537000Y-104386000D02*
X123537000Y-104386000D01*
X129537000Y-104266000D02*
X123537000Y-104266000D01*
X129537000Y-104146000D02*
X123537000Y-104146000D01*
X129537000Y-104026000D02*
X123537000Y-104026000D01*
X129537000Y-103906000D02*
X123537000Y-103906000D01*
X129537000Y-103786000D02*
X123537000Y-103786000D01*
X132527000Y-104446000D02*
X132197000Y-104446000D01*
X132527000Y-103686000D02*
X132197000Y-103686000D01*
X132197000Y-102796000D02*
X129537000Y-102796000D01*
X129537000Y-101906000D02*
X123537000Y-101906000D01*
X123537000Y-101906000D02*
X123537000Y-101146000D01*
X123537000Y-101146000D02*
X129537000Y-101146000D01*
X132594071Y-101906000D02*
X132197000Y-101906000D01*
X132594071Y-101146000D02*
X132197000Y-101146000D01*
X132197000Y-100256000D02*
X129537000Y-100256000D01*
X129537000Y-99366000D02*
X123537000Y-99366000D01*
X123537000Y-99366000D02*
X123537000Y-98606000D01*
X123537000Y-98606000D02*
X129537000Y-98606000D01*
X132594071Y-99366000D02*
X132197000Y-99366000D01*
X132594071Y-98606000D02*
X132197000Y-98606000D01*
X132197000Y-97716000D02*
X129537000Y-97716000D01*
X129537000Y-96826000D02*
X123537000Y-96826000D01*
X123537000Y-96826000D02*
X123537000Y-96066000D01*
X123537000Y-96066000D02*
X129537000Y-96066000D01*
X132594071Y-96826000D02*
X132197000Y-96826000D01*
X132594071Y-96066000D02*
X132197000Y-96066000D01*
X134907000Y-104066000D02*
X134907000Y-105336000D01*
X134907000Y-105336000D02*
X133637000Y-105336000D01*
X146907000Y-93569400D02*
X144247000Y-93569400D01*
X146907000Y-98709400D02*
X146907000Y-93569400D01*
X144247000Y-98709400D02*
X144247000Y-93569400D01*
X146907000Y-98709400D02*
X144247000Y-98709400D01*
X146907000Y-99979400D02*
X146907000Y-101309400D01*
X146907000Y-101309400D02*
X145577000Y-101309400D01*
X153350000Y-107305000D02*
X155300000Y-107305000D01*
X153350000Y-107305000D02*
X151400000Y-107305000D01*
X153350000Y-97185000D02*
X155300000Y-97185000D01*
X153350000Y-97185000D02*
X149900000Y-97185000D01*
D10*
X161125095Y-91940680D02*
X161125095Y-92750204D01*
X161172714Y-92845442D01*
X161220333Y-92893061D01*
X161315571Y-92940680D01*
X161506047Y-92940680D01*
X161601285Y-92893061D01*
X161648904Y-92845442D01*
X161696523Y-92750204D01*
X161696523Y-91940680D01*
X162125095Y-92035919D02*
X162172714Y-91988300D01*
X162267952Y-91940680D01*
X162506047Y-91940680D01*
X162601285Y-91988300D01*
X162648904Y-92035919D01*
X162696523Y-92131157D01*
X162696523Y-92226395D01*
X162648904Y-92369252D01*
X162077476Y-92940680D01*
X162696523Y-92940680D01*
X141533333Y-97352380D02*
X141200000Y-96876190D01*
X140961904Y-97352380D02*
X140961904Y-96352380D01*
X141342857Y-96352380D01*
X141438095Y-96400000D01*
X141485714Y-96447619D01*
X141533333Y-96542857D01*
X141533333Y-96685714D01*
X141485714Y-96780952D01*
X141438095Y-96828571D01*
X141342857Y-96876190D01*
X140961904Y-96876190D01*
X142438095Y-96352380D02*
X141961904Y-96352380D01*
X141914285Y-96828571D01*
X141961904Y-96780952D01*
X142057142Y-96733333D01*
X142295238Y-96733333D01*
X142390476Y-96780952D01*
X142438095Y-96828571D01*
X142485714Y-96923809D01*
X142485714Y-97161904D01*
X142438095Y-97257142D01*
X142390476Y-97304761D01*
X142295238Y-97352380D01*
X142057142Y-97352380D01*
X141961904Y-97304761D01*
X141914285Y-97257142D01*
X141633333Y-104052380D02*
X141300000Y-103576190D01*
X141061904Y-104052380D02*
X141061904Y-103052380D01*
X141442857Y-103052380D01*
X141538095Y-103100000D01*
X141585714Y-103147619D01*
X141633333Y-103242857D01*
X141633333Y-103385714D01*
X141585714Y-103480952D01*
X141538095Y-103528571D01*
X141442857Y-103576190D01*
X141061904Y-103576190D01*
X142490476Y-103385714D02*
X142490476Y-104052380D01*
X142252380Y-103004761D02*
X142014285Y-103719047D01*
X142633333Y-103719047D01*
X163333333Y-102252380D02*
X163000000Y-101776190D01*
X162761904Y-102252380D02*
X162761904Y-101252380D01*
X163142857Y-101252380D01*
X163238095Y-101300000D01*
X163285714Y-101347619D01*
X163333333Y-101442857D01*
X163333333Y-101585714D01*
X163285714Y-101680952D01*
X163238095Y-101728571D01*
X163142857Y-101776190D01*
X162761904Y-101776190D01*
X163666666Y-101252380D02*
X164285714Y-101252380D01*
X163952380Y-101633333D01*
X164095238Y-101633333D01*
X164190476Y-101680952D01*
X164238095Y-101728571D01*
X164285714Y-101823809D01*
X164285714Y-102061904D01*
X164238095Y-102157142D01*
X164190476Y-102204761D01*
X164095238Y-102252380D01*
X163809523Y-102252380D01*
X163714285Y-102204761D01*
X163666666Y-102157142D01*
X148033333Y-104952380D02*
X147700000Y-104476190D01*
X147461904Y-104952380D02*
X147461904Y-103952380D01*
X147842857Y-103952380D01*
X147938095Y-104000000D01*
X147985714Y-104047619D01*
X148033333Y-104142857D01*
X148033333Y-104285714D01*
X147985714Y-104380952D01*
X147938095Y-104428571D01*
X147842857Y-104476190D01*
X147461904Y-104476190D01*
X148414285Y-104047619D02*
X148461904Y-104000000D01*
X148557142Y-103952380D01*
X148795238Y-103952380D01*
X148890476Y-104000000D01*
X148938095Y-104047619D01*
X148985714Y-104142857D01*
X148985714Y-104238095D01*
X148938095Y-104380952D01*
X148366666Y-104952380D01*
X148985714Y-104952380D01*
X148033333Y-106652380D02*
X147700000Y-106176190D01*
X147461904Y-106652380D02*
X147461904Y-105652380D01*
X147842857Y-105652380D01*
X147938095Y-105700000D01*
X147985714Y-105747619D01*
X148033333Y-105842857D01*
X148033333Y-105985714D01*
X147985714Y-106080952D01*
X147938095Y-106128571D01*
X147842857Y-106176190D01*
X147461904Y-106176190D01*
X148985714Y-106652380D02*
X148414285Y-106652380D01*
X148700000Y-106652380D02*
X148700000Y-105652380D01*
X148604761Y-105795238D01*
X148509523Y-105890476D01*
X148414285Y-105938095D01*
X140961904Y-99452380D02*
X140961904Y-98452380D01*
X141200000Y-98452380D01*
X141342857Y-98500000D01*
X141438095Y-98595238D01*
X141485714Y-98690476D01*
X141533333Y-98880952D01*
X141533333Y-99023809D01*
X141485714Y-99214285D01*
X141438095Y-99309523D01*
X141342857Y-99404761D01*
X141200000Y-99452380D01*
X140961904Y-99452380D01*
X141866666Y-98452380D02*
X142485714Y-98452380D01*
X142152380Y-98833333D01*
X142295238Y-98833333D01*
X142390476Y-98880952D01*
X142438095Y-98928571D01*
X142485714Y-99023809D01*
X142485714Y-99261904D01*
X142438095Y-99357142D01*
X142390476Y-99404761D01*
X142295238Y-99452380D01*
X142009523Y-99452380D01*
X141914285Y-99404761D01*
X141866666Y-99357142D01*
X140961904Y-101952380D02*
X140961904Y-100952380D01*
X141200000Y-100952380D01*
X141342857Y-101000000D01*
X141438095Y-101095238D01*
X141485714Y-101190476D01*
X141533333Y-101380952D01*
X141533333Y-101523809D01*
X141485714Y-101714285D01*
X141438095Y-101809523D01*
X141342857Y-101904761D01*
X141200000Y-101952380D01*
X140961904Y-101952380D01*
X141914285Y-101047619D02*
X141961904Y-101000000D01*
X142057142Y-100952380D01*
X142295238Y-100952380D01*
X142390476Y-101000000D01*
X142438095Y-101047619D01*
X142485714Y-101142857D01*
X142485714Y-101238095D01*
X142438095Y-101380952D01*
X141866666Y-101952380D01*
X142485714Y-101952380D01*
X162761904Y-99952380D02*
X162761904Y-98952380D01*
X163000000Y-98952380D01*
X163142857Y-99000000D01*
X163238095Y-99095238D01*
X163285714Y-99190476D01*
X163333333Y-99380952D01*
X163333333Y-99523809D01*
X163285714Y-99714285D01*
X163238095Y-99809523D01*
X163142857Y-99904761D01*
X163000000Y-99952380D01*
X162761904Y-99952380D01*
X164285714Y-99952380D02*
X163714285Y-99952380D01*
X164000000Y-99952380D02*
X164000000Y-98952380D01*
X163904761Y-99095238D01*
X163809523Y-99190476D01*
X163714285Y-99238095D01*
X150285333Y-93836742D02*
X150237714Y-93884361D01*
X150094857Y-93931980D01*
X149999619Y-93931980D01*
X149856761Y-93884361D01*
X149761523Y-93789123D01*
X149713904Y-93693885D01*
X149666285Y-93503409D01*
X149666285Y-93360552D01*
X149713904Y-93170076D01*
X149761523Y-93074838D01*
X149856761Y-92979600D01*
X149999619Y-92931980D01*
X150094857Y-92931980D01*
X150237714Y-92979600D01*
X150285333Y-93027219D01*
X151142476Y-93265314D02*
X151142476Y-93931980D01*
X150904380Y-92884361D02*
X150666285Y-93598647D01*
X151285333Y-93598647D01*
X163333333Y-104157142D02*
X163285714Y-104204761D01*
X163142857Y-104252380D01*
X163047619Y-104252380D01*
X162904761Y-104204761D01*
X162809523Y-104109523D01*
X162761904Y-104014285D01*
X162714285Y-103823809D01*
X162714285Y-103680952D01*
X162761904Y-103490476D01*
X162809523Y-103395238D01*
X162904761Y-103300000D01*
X163047619Y-103252380D01*
X163142857Y-103252380D01*
X163285714Y-103300000D01*
X163333333Y-103347619D01*
X163666666Y-103252380D02*
X164285714Y-103252380D01*
X163952380Y-103633333D01*
X164095238Y-103633333D01*
X164190476Y-103680952D01*
X164238095Y-103728571D01*
X164285714Y-103823809D01*
X164285714Y-104061904D01*
X164238095Y-104157142D01*
X164190476Y-104204761D01*
X164095238Y-104252380D01*
X163809523Y-104252380D01*
X163714285Y-104204761D01*
X163666666Y-104157142D01*
X163433333Y-106457142D02*
X163385714Y-106504761D01*
X163242857Y-106552380D01*
X163147619Y-106552380D01*
X163004761Y-106504761D01*
X162909523Y-106409523D01*
X162861904Y-106314285D01*
X162814285Y-106123809D01*
X162814285Y-105980952D01*
X162861904Y-105790476D01*
X162909523Y-105695238D01*
X163004761Y-105600000D01*
X163147619Y-105552380D01*
X163242857Y-105552380D01*
X163385714Y-105600000D01*
X163433333Y-105647619D01*
X163814285Y-105647619D02*
X163861904Y-105600000D01*
X163957142Y-105552380D01*
X164195238Y-105552380D01*
X164290476Y-105600000D01*
X164338095Y-105647619D01*
X164385714Y-105742857D01*
X164385714Y-105838095D01*
X164338095Y-105980952D01*
X163766666Y-106552380D01*
X164385714Y-106552380D01*
X156297333Y-93836742D02*
X156249714Y-93884361D01*
X156106857Y-93931980D01*
X156011619Y-93931980D01*
X155868761Y-93884361D01*
X155773523Y-93789123D01*
X155725904Y-93693885D01*
X155678285Y-93503409D01*
X155678285Y-93360552D01*
X155725904Y-93170076D01*
X155773523Y-93074838D01*
X155868761Y-92979600D01*
X156011619Y-92931980D01*
X156106857Y-92931980D01*
X156249714Y-92979600D01*
X156297333Y-93027219D01*
X157249714Y-93931980D02*
X156678285Y-93931980D01*
X156964000Y-93931980D02*
X156964000Y-92931980D01*
X156868761Y-93074838D01*
X156773523Y-93170076D01*
X156678285Y-93217695D01*
X169438666Y-91675380D02*
X169438666Y-92389666D01*
X169391047Y-92532523D01*
X169295809Y-92627761D01*
X169152952Y-92675380D01*
X169057714Y-92675380D01*
X170438666Y-92675380D02*
X169867238Y-92675380D01*
X170152952Y-92675380D02*
X170152952Y-91675380D01*
X170057714Y-91818238D01*
X169962476Y-91913476D01*
X169867238Y-91961095D01*
X133247806Y-106714040D02*
X133247806Y-107428326D01*
X133200187Y-107571183D01*
X133104949Y-107666421D01*
X132962092Y-107714040D01*
X132866854Y-107714040D01*
X133676378Y-106809279D02*
X133723997Y-106761660D01*
X133819235Y-106714040D01*
X134057330Y-106714040D01*
X134152568Y-106761660D01*
X134200187Y-106809279D01*
X134247806Y-106904517D01*
X134247806Y-106999755D01*
X134200187Y-107142612D01*
X133628759Y-107714040D01*
X134247806Y-107714040D01*
X147381420Y-97917133D02*
X148095706Y-97917133D01*
X148238563Y-97964752D01*
X148333801Y-98059990D01*
X148381420Y-98202847D01*
X148381420Y-98298085D01*
X148381420Y-97440942D02*
X147381420Y-97440942D01*
X147381420Y-97059990D01*
X147429040Y-96964752D01*
X147476659Y-96917133D01*
X147571897Y-96869514D01*
X147714754Y-96869514D01*
X147809992Y-96917133D01*
X147857611Y-96964752D01*
X147905230Y-97059990D01*
X147905230Y-97440942D01*
X148381420Y-95917133D02*
X148381420Y-96488561D01*
X148381420Y-96202847D02*
X147381420Y-96202847D01*
X147524278Y-96298085D01*
X147619516Y-96393323D01*
X147667135Y-96488561D01*
X152588095Y-95797380D02*
X152588095Y-96606904D01*
X152635714Y-96702142D01*
X152683333Y-96749761D01*
X152778571Y-96797380D01*
X152969047Y-96797380D01*
X153064285Y-96749761D01*
X153111904Y-96702142D01*
X153159523Y-96606904D01*
X153159523Y-95797380D01*
X154159523Y-96797380D02*
X153588095Y-96797380D01*
X153873809Y-96797380D02*
X153873809Y-95797380D01*
X153778571Y-95940238D01*
X153683333Y-96035476D01*
X153588095Y-96083095D01*
M02*
