G04 #@! TF.GenerationSoftware,KiCad,Pcbnew,(5.1.10)-1*
G04 #@! TF.CreationDate,2021-06-05T02:46:32+08:00*
G04 #@! TF.ProjectId,ch340,63683334-302e-46b6-9963-61645f706362,rev?*
G04 #@! TF.SameCoordinates,Original*
G04 #@! TF.FileFunction,Legend,Bot*
G04 #@! TF.FilePolarity,Positive*
%FSLAX46Y46*%
G04 Gerber Fmt 4.6, Leading zero omitted, Abs format (unit mm)*
G04 Created by KiCad (PCBNEW (5.1.10)-1) date 2021-06-05 02:46:32*
%MOMM*%
%LPD*%
G01*
G04 APERTURE LIST*
%ADD10C,0.150000*%
G04 APERTURE END LIST*
D10*
X122997340Y-92801535D02*
X122949720Y-92706297D01*
X122949720Y-92563440D01*
X122997340Y-92420582D01*
X123092578Y-92325344D01*
X123187816Y-92277725D01*
X123378292Y-92230106D01*
X123521149Y-92230106D01*
X123711625Y-92277725D01*
X123806863Y-92325344D01*
X123902101Y-92420582D01*
X123949720Y-92563440D01*
X123949720Y-92658678D01*
X123902101Y-92801535D01*
X123854482Y-92849154D01*
X123521149Y-92849154D01*
X123521149Y-92658678D01*
X123949720Y-93277725D02*
X122949720Y-93277725D01*
X123949720Y-93849154D01*
X122949720Y-93849154D01*
X123949720Y-94325344D02*
X122949720Y-94325344D01*
X122949720Y-94563440D01*
X122997340Y-94706297D01*
X123092578Y-94801535D01*
X123187816Y-94849154D01*
X123378292Y-94896773D01*
X123521149Y-94896773D01*
X123711625Y-94849154D01*
X123806863Y-94801535D01*
X123902101Y-94706297D01*
X123949720Y-94563440D01*
X123949720Y-94325344D01*
X124058940Y-96749573D02*
X123582750Y-96416240D01*
X124058940Y-96178144D02*
X123058940Y-96178144D01*
X123058940Y-96559097D01*
X123106560Y-96654335D01*
X123154179Y-96701954D01*
X123249417Y-96749573D01*
X123392274Y-96749573D01*
X123487512Y-96701954D01*
X123535131Y-96654335D01*
X123582750Y-96559097D01*
X123582750Y-96178144D01*
X123058940Y-97082906D02*
X124058940Y-97749573D01*
X123058940Y-97749573D02*
X124058940Y-97082906D01*
X123122440Y-98734975D02*
X123122440Y-99306403D01*
X124122440Y-99020689D02*
X123122440Y-99020689D01*
X123122440Y-99544499D02*
X124122440Y-100211165D01*
X123122440Y-100211165D02*
X124122440Y-99544499D01*
X123213880Y-101549366D02*
X124213880Y-101882700D01*
X123213880Y-102216033D01*
X124118642Y-103120795D02*
X124166261Y-103073176D01*
X124213880Y-102930319D01*
X124213880Y-102835080D01*
X124166261Y-102692223D01*
X124071023Y-102596985D01*
X123975785Y-102549366D01*
X123785309Y-102501747D01*
X123642452Y-102501747D01*
X123451976Y-102549366D01*
X123356738Y-102596985D01*
X123261500Y-102692223D01*
X123213880Y-102835080D01*
X123213880Y-102930319D01*
X123261500Y-103073176D01*
X123309119Y-103120795D01*
X124118642Y-104120795D02*
X124166261Y-104073176D01*
X124213880Y-103930319D01*
X124213880Y-103835080D01*
X124166261Y-103692223D01*
X124071023Y-103596985D01*
X123975785Y-103549366D01*
X123785309Y-103501747D01*
X123642452Y-103501747D01*
X123451976Y-103549366D01*
X123356738Y-103596985D01*
X123261500Y-103692223D01*
X123213880Y-103835080D01*
X123213880Y-103930319D01*
X123261500Y-104073176D01*
X123309119Y-104120795D01*
M02*
