G04 #@! TF.GenerationSoftware,KiCad,Pcbnew,(5.1.10)-1*
G04 #@! TF.CreationDate,2021-06-18T23:51:03+08:00*
G04 #@! TF.ProjectId,ch340,63683334-302e-46b6-9963-61645f706362,rev?*
G04 #@! TF.SameCoordinates,Original*
G04 #@! TF.FileFunction,Legend,Bot*
G04 #@! TF.FilePolarity,Positive*
%FSLAX46Y46*%
G04 Gerber Fmt 4.6, Leading zero omitted, Abs format (unit mm)*
G04 Created by KiCad (PCBNEW (5.1.10)-1) date 2021-06-18 23:51:03*
%MOMM*%
%LPD*%
G01*
G04 APERTURE LIST*
%ADD10C,0.150000*%
G04 APERTURE END LIST*
D10*
X135344280Y-94858935D02*
X135296660Y-94763697D01*
X135296660Y-94620840D01*
X135344280Y-94477982D01*
X135439518Y-94382744D01*
X135534756Y-94335125D01*
X135725232Y-94287506D01*
X135868089Y-94287506D01*
X136058565Y-94335125D01*
X136153803Y-94382744D01*
X136249041Y-94477982D01*
X136296660Y-94620840D01*
X136296660Y-94716078D01*
X136249041Y-94858935D01*
X136201422Y-94906554D01*
X135868089Y-94906554D01*
X135868089Y-94716078D01*
X136296660Y-95335125D02*
X135296660Y-95335125D01*
X136296660Y-95906554D01*
X135296660Y-95906554D01*
X136296660Y-96382744D02*
X135296660Y-96382744D01*
X135296660Y-96620840D01*
X135344280Y-96763697D01*
X135439518Y-96858935D01*
X135534756Y-96906554D01*
X135725232Y-96954173D01*
X135868089Y-96954173D01*
X136058565Y-96906554D01*
X136153803Y-96858935D01*
X136249041Y-96763697D01*
X136296660Y-96620840D01*
X136296660Y-96382744D01*
X136405880Y-98806973D02*
X135929690Y-98473640D01*
X136405880Y-98235544D02*
X135405880Y-98235544D01*
X135405880Y-98616497D01*
X135453500Y-98711735D01*
X135501119Y-98759354D01*
X135596357Y-98806973D01*
X135739214Y-98806973D01*
X135834452Y-98759354D01*
X135882071Y-98711735D01*
X135929690Y-98616497D01*
X135929690Y-98235544D01*
X135405880Y-99140306D02*
X136405880Y-99806973D01*
X135405880Y-99806973D02*
X136405880Y-99140306D01*
X135469380Y-100792375D02*
X135469380Y-101363803D01*
X136469380Y-101078089D02*
X135469380Y-101078089D01*
X135469380Y-101601899D02*
X136469380Y-102268565D01*
X135469380Y-102268565D02*
X136469380Y-101601899D01*
X135560820Y-103606766D02*
X136560820Y-103940100D01*
X135560820Y-104273433D01*
X136465582Y-105178195D02*
X136513201Y-105130576D01*
X136560820Y-104987719D01*
X136560820Y-104892480D01*
X136513201Y-104749623D01*
X136417963Y-104654385D01*
X136322725Y-104606766D01*
X136132249Y-104559147D01*
X135989392Y-104559147D01*
X135798916Y-104606766D01*
X135703678Y-104654385D01*
X135608440Y-104749623D01*
X135560820Y-104892480D01*
X135560820Y-104987719D01*
X135608440Y-105130576D01*
X135656059Y-105178195D01*
X136465582Y-106178195D02*
X136513201Y-106130576D01*
X136560820Y-105987719D01*
X136560820Y-105892480D01*
X136513201Y-105749623D01*
X136417963Y-105654385D01*
X136322725Y-105606766D01*
X136132249Y-105559147D01*
X135989392Y-105559147D01*
X135798916Y-105606766D01*
X135703678Y-105654385D01*
X135608440Y-105749623D01*
X135560820Y-105892480D01*
X135560820Y-105987719D01*
X135608440Y-106130576D01*
X135656059Y-106178195D01*
M02*
