M48
; DRILL file {KiCad (5.1.10)-1} date 06/19/21 20:54:34
; FORMAT={-:-/ absolute / inch / decimal}
; #@! TF.CreationDate,2021-06-19T20:54:34+08:00
; #@! TF.GenerationSoftware,Kicad,Pcbnew,(5.1.10)-1
; #@! TF.FileFunction,Plated,1,2,PTH
FMAT,2
INCH
T1C0.0157
T2C0.0354
T3C0.0394
%
G90
G05
T1
X5.1969Y-3.6614
X5.1969Y-4.252
X5.3543Y-3.6614
X5.3543Y-4.252
X5.4296Y-3.9491
X5.5118Y-4.252
X5.5906Y-3.7402
X5.643Y-4.1177
X5.6693Y-4.252
X5.8268Y-4.252
X5.8645Y-4.047
X5.9442Y-3.7909
X6.0041Y-4.1033
X6.0433Y-3.878
X6.192Y-3.7931
X6.2383Y-3.9169
X6.2598Y-4.252
X6.3189Y-3.622
X6.4173Y-4.252
X6.4868Y-3.9877
X6.4883Y-3.9096
X6.4961Y-3.622
X6.5748Y-4.252
X6.6339Y-3.622
T3
X5.2613Y-3.7971
X5.2613Y-3.8971
X5.2613Y-3.9971
X5.2613Y-4.0971
X5.7314Y-3.7362
X5.7314Y-3.8362
X5.7314Y-3.9362
T2
G00X6.6524Y-3.7214
M15
G01X6.7154Y-3.7214
M16
G05
G00X6.6524Y-4.1702
M15
G01X6.7154Y-4.1702
M16
G05
T0
M30
