G04 #@! TF.GenerationSoftware,KiCad,Pcbnew,(5.1.10)-1*
G04 #@! TF.CreationDate,2021-06-18T23:51:03+08:00*
G04 #@! TF.ProjectId,ch340,63683334-302e-46b6-9963-61645f706362,rev?*
G04 #@! TF.SameCoordinates,Original*
G04 #@! TF.FileFunction,Copper,L2,Bot*
G04 #@! TF.FilePolarity,Positive*
%FSLAX46Y46*%
G04 Gerber Fmt 4.6, Leading zero omitted, Abs format (unit mm)*
G04 Created by KiCad (PCBNEW (5.1.10)-1) date 2021-06-18 23:51:03*
%MOMM*%
%LPD*%
G01*
G04 APERTURE LIST*
G04 #@! TA.AperFunction,ComponentPad*
%ADD10O,3.500000X1.900000*%
G04 #@! TD*
G04 #@! TA.AperFunction,ComponentPad*
%ADD11R,1.700000X1.700000*%
G04 #@! TD*
G04 #@! TA.AperFunction,ComponentPad*
%ADD12O,1.700000X1.700000*%
G04 #@! TD*
G04 #@! TA.AperFunction,ViaPad*
%ADD13C,0.800000*%
G04 #@! TD*
G04 #@! TA.AperFunction,Conductor*
%ADD14C,0.250000*%
G04 #@! TD*
G04 #@! TA.AperFunction,Conductor*
%ADD15C,0.500000*%
G04 #@! TD*
G04 #@! TA.AperFunction,Conductor*
%ADD16C,0.254000*%
G04 #@! TD*
G04 #@! TA.AperFunction,Conductor*
%ADD17C,0.100000*%
G04 #@! TD*
G04 APERTURE END LIST*
D10*
X169772000Y-94523000D03*
X169772000Y-105923000D03*
D11*
X133637000Y-104066000D03*
D12*
X133637000Y-101526000D03*
X133637000Y-98986000D03*
X133637000Y-96446000D03*
D11*
X145577000Y-99979400D03*
D12*
X145577000Y-97439400D03*
X145577000Y-94899400D03*
D13*
X158453000Y-99489300D03*
X157277000Y-96344700D03*
X150983000Y-96288900D03*
X132000000Y-93000000D03*
X136000000Y-93000000D03*
X142000000Y-95000000D03*
X132000000Y-108000000D03*
X136000000Y-108000000D03*
X140000000Y-108000000D03*
X144000000Y-108000000D03*
X148000000Y-108000000D03*
X159000000Y-108000000D03*
X163000000Y-108000000D03*
X167000000Y-108000000D03*
X153500000Y-98500000D03*
X160500000Y-92000000D03*
X165000000Y-92000000D03*
X168500000Y-92000000D03*
X164802820Y-99303840D03*
X152504140Y-104223820D03*
X164764720Y-101287580D03*
X148958300Y-102793800D03*
X143332200Y-104589580D03*
X137911840Y-100307140D03*
D14*
X152504140Y-104223820D02*
X153324560Y-103403400D01*
X153324560Y-103403400D02*
X158607760Y-103403400D01*
X158607760Y-103403400D02*
X159928560Y-102082600D01*
X159928560Y-102082600D02*
X159928560Y-100898960D01*
X161523680Y-99303840D02*
X164802820Y-99303840D01*
X159928560Y-100898960D02*
X161523680Y-99303840D01*
X148958300Y-102793800D02*
X148445220Y-103306880D01*
X148445220Y-103306880D02*
X148445220Y-105029000D01*
X148445220Y-105029000D02*
X148671280Y-105255060D01*
X148671280Y-105255060D02*
X159103060Y-105255060D01*
X159103060Y-105255060D02*
X161147760Y-103210360D01*
X161147760Y-103210360D02*
X161147760Y-101737160D01*
X161597340Y-101287580D02*
X164764720Y-101287580D01*
X161147760Y-101737160D02*
X161597340Y-101287580D01*
X137911840Y-100307140D02*
X137911840Y-103812340D01*
X138689080Y-104589580D02*
X143332200Y-104589580D01*
X137911840Y-103812340D02*
X138689080Y-104589580D01*
D15*
X133637000Y-104066000D02*
X135702380Y-104066000D01*
X135702380Y-104066000D02*
X136182100Y-103586280D01*
X136182100Y-103586280D02*
X136182100Y-98757740D01*
X137500440Y-97439400D02*
X145577000Y-97439400D01*
X136182100Y-98757740D02*
X137500440Y-97439400D01*
D16*
X172004120Y-93848274D02*
X171960436Y-93748017D01*
X171782566Y-93492038D01*
X171558175Y-93275678D01*
X171295886Y-93107252D01*
X171005778Y-92993232D01*
X170699000Y-92938000D01*
X169899000Y-92938000D01*
X169899000Y-94396000D01*
X169919000Y-94396000D01*
X169919000Y-94650000D01*
X169899000Y-94650000D01*
X169899000Y-96108000D01*
X170699000Y-96108000D01*
X171005778Y-96052768D01*
X171295886Y-95938748D01*
X171558175Y-95770322D01*
X171782566Y-95553962D01*
X171960436Y-95297983D01*
X172004120Y-95197726D01*
X172004121Y-105248275D01*
X171960436Y-105148017D01*
X171782566Y-104892038D01*
X171558175Y-104675678D01*
X171295886Y-104507252D01*
X171005778Y-104393232D01*
X170699000Y-104338000D01*
X169899000Y-104338000D01*
X169899000Y-105796000D01*
X169919000Y-105796000D01*
X169919000Y-106050000D01*
X169899000Y-106050000D01*
X169899000Y-107508000D01*
X170699000Y-107508000D01*
X171005778Y-107452768D01*
X171295886Y-107338748D01*
X171558175Y-107170322D01*
X171782566Y-106953962D01*
X171960436Y-106697983D01*
X172004121Y-106597725D01*
X172004121Y-109075620D01*
X130111100Y-109075620D01*
X130111100Y-106295588D01*
X167431414Y-106295588D01*
X167459051Y-106412221D01*
X167583564Y-106697983D01*
X167761434Y-106953962D01*
X167985825Y-107170322D01*
X168248114Y-107338748D01*
X168538222Y-107452768D01*
X168845000Y-107508000D01*
X169645000Y-107508000D01*
X169645000Y-106050000D01*
X167551416Y-106050000D01*
X167431414Y-106295588D01*
X130111100Y-106295588D01*
X130111100Y-103216000D01*
X132148928Y-103216000D01*
X132148928Y-104916000D01*
X132161188Y-105040482D01*
X132197498Y-105160180D01*
X132256463Y-105270494D01*
X132335815Y-105367185D01*
X132432506Y-105446537D01*
X132542820Y-105505502D01*
X132662518Y-105541812D01*
X132787000Y-105554072D01*
X134487000Y-105554072D01*
X134611482Y-105541812D01*
X134731180Y-105505502D01*
X134841494Y-105446537D01*
X134938185Y-105367185D01*
X135017537Y-105270494D01*
X135076502Y-105160180D01*
X135112812Y-105040482D01*
X135121625Y-104951000D01*
X135658911Y-104951000D01*
X135702380Y-104955281D01*
X135745849Y-104951000D01*
X135745857Y-104951000D01*
X135875870Y-104938195D01*
X136042693Y-104887589D01*
X136196439Y-104805411D01*
X136331197Y-104694817D01*
X136358914Y-104661044D01*
X136777145Y-104242813D01*
X136810917Y-104215097D01*
X136921511Y-104080339D01*
X136985125Y-103961325D01*
X137003689Y-103926594D01*
X137054295Y-103759770D01*
X137057652Y-103725687D01*
X137067100Y-103629757D01*
X137067100Y-103629749D01*
X137071381Y-103586280D01*
X137067100Y-103542811D01*
X137067100Y-100905848D01*
X137107903Y-100966914D01*
X137151840Y-101010851D01*
X137151841Y-103775008D01*
X137148164Y-103812340D01*
X137151841Y-103849673D01*
X137158365Y-103915906D01*
X137162838Y-103961325D01*
X137206294Y-104104586D01*
X137276866Y-104236616D01*
X137326696Y-104297333D01*
X137371840Y-104352341D01*
X137400838Y-104376139D01*
X138125281Y-105100582D01*
X138149079Y-105129581D01*
X138264804Y-105224554D01*
X138396833Y-105295126D01*
X138540094Y-105338583D01*
X138651747Y-105349580D01*
X138651756Y-105349580D01*
X138689079Y-105353256D01*
X138726402Y-105349580D01*
X142628489Y-105349580D01*
X142672426Y-105393517D01*
X142841944Y-105506785D01*
X143030302Y-105584806D01*
X143230261Y-105624580D01*
X143434139Y-105624580D01*
X143634098Y-105584806D01*
X143822456Y-105506785D01*
X143991974Y-105393517D01*
X144136137Y-105249354D01*
X144249405Y-105079836D01*
X144327426Y-104891478D01*
X144367200Y-104691519D01*
X144367200Y-104487641D01*
X144327426Y-104287682D01*
X144249405Y-104099324D01*
X144136137Y-103929806D01*
X143991974Y-103785643D01*
X143822456Y-103672375D01*
X143634098Y-103594354D01*
X143434139Y-103554580D01*
X143230261Y-103554580D01*
X143030302Y-103594354D01*
X142841944Y-103672375D01*
X142672426Y-103785643D01*
X142628489Y-103829580D01*
X139003882Y-103829580D01*
X138671840Y-103497539D01*
X138671840Y-103306880D01*
X147681544Y-103306880D01*
X147685220Y-103344203D01*
X147685221Y-104991668D01*
X147681544Y-105029000D01*
X147685221Y-105066333D01*
X147691451Y-105129581D01*
X147696218Y-105177985D01*
X147739674Y-105321246D01*
X147810246Y-105453276D01*
X147881421Y-105540002D01*
X147905220Y-105569001D01*
X147934218Y-105592799D01*
X148107476Y-105766057D01*
X148131279Y-105795061D01*
X148247004Y-105890034D01*
X148379033Y-105960606D01*
X148522294Y-106004063D01*
X148633947Y-106015060D01*
X148633956Y-106015060D01*
X148671279Y-106018736D01*
X148708602Y-106015060D01*
X159065738Y-106015060D01*
X159103060Y-106018736D01*
X159140382Y-106015060D01*
X159140393Y-106015060D01*
X159252046Y-106004063D01*
X159395307Y-105960606D01*
X159527336Y-105890034D01*
X159643061Y-105795061D01*
X159666864Y-105766058D01*
X159882510Y-105550412D01*
X167431414Y-105550412D01*
X167551416Y-105796000D01*
X169645000Y-105796000D01*
X169645000Y-104338000D01*
X168845000Y-104338000D01*
X168538222Y-104393232D01*
X168248114Y-104507252D01*
X167985825Y-104675678D01*
X167761434Y-104892038D01*
X167583564Y-105148017D01*
X167459051Y-105433779D01*
X167431414Y-105550412D01*
X159882510Y-105550412D01*
X161658769Y-103774154D01*
X161687761Y-103750361D01*
X161711555Y-103721368D01*
X161711559Y-103721364D01*
X161782733Y-103634637D01*
X161782734Y-103634636D01*
X161853306Y-103502607D01*
X161896763Y-103359346D01*
X161907760Y-103247693D01*
X161907760Y-103247684D01*
X161911436Y-103210361D01*
X161907760Y-103173038D01*
X161907760Y-102406288D01*
X168587000Y-102406288D01*
X168587000Y-102639712D01*
X168632539Y-102868652D01*
X168721866Y-103084308D01*
X168851550Y-103278394D01*
X169016606Y-103443450D01*
X169210692Y-103573134D01*
X169426348Y-103662461D01*
X169655288Y-103708000D01*
X169888712Y-103708000D01*
X170117652Y-103662461D01*
X170333308Y-103573134D01*
X170527394Y-103443450D01*
X170692450Y-103278394D01*
X170822134Y-103084308D01*
X170911461Y-102868652D01*
X170957000Y-102639712D01*
X170957000Y-102406288D01*
X170911461Y-102177348D01*
X170822134Y-101961692D01*
X170692450Y-101767606D01*
X170527394Y-101602550D01*
X170333308Y-101472866D01*
X170117652Y-101383539D01*
X169888712Y-101338000D01*
X169655288Y-101338000D01*
X169426348Y-101383539D01*
X169210692Y-101472866D01*
X169016606Y-101602550D01*
X168851550Y-101767606D01*
X168721866Y-101961692D01*
X168632539Y-102177348D01*
X168587000Y-102406288D01*
X161907760Y-102406288D01*
X161907760Y-102051961D01*
X161912141Y-102047580D01*
X164061009Y-102047580D01*
X164104946Y-102091517D01*
X164274464Y-102204785D01*
X164462822Y-102282806D01*
X164662781Y-102322580D01*
X164866659Y-102322580D01*
X165066618Y-102282806D01*
X165254976Y-102204785D01*
X165424494Y-102091517D01*
X165568657Y-101947354D01*
X165681925Y-101777836D01*
X165759946Y-101589478D01*
X165799720Y-101389519D01*
X165799720Y-101185641D01*
X165759946Y-100985682D01*
X165681925Y-100797324D01*
X165568657Y-100627806D01*
X165424494Y-100483643D01*
X165254976Y-100370375D01*
X165089926Y-100302008D01*
X165104718Y-100299066D01*
X165293076Y-100221045D01*
X165462594Y-100107777D01*
X165606757Y-99963614D01*
X165720025Y-99794096D01*
X165798046Y-99605738D01*
X165837820Y-99405779D01*
X165837820Y-99201901D01*
X165798046Y-99001942D01*
X165720025Y-98813584D01*
X165606757Y-98644066D01*
X165462594Y-98499903D01*
X165293076Y-98386635D01*
X165104718Y-98308614D01*
X164904759Y-98268840D01*
X164700881Y-98268840D01*
X164500922Y-98308614D01*
X164312564Y-98386635D01*
X164143046Y-98499903D01*
X164099109Y-98543840D01*
X161561002Y-98543840D01*
X161523679Y-98540164D01*
X161486356Y-98543840D01*
X161486347Y-98543840D01*
X161374694Y-98554837D01*
X161231433Y-98598294D01*
X161099404Y-98668866D01*
X160983679Y-98763839D01*
X160959881Y-98792837D01*
X159417558Y-100335161D01*
X159388560Y-100358959D01*
X159364762Y-100387957D01*
X159364761Y-100387958D01*
X159293586Y-100474684D01*
X159223014Y-100606714D01*
X159192740Y-100706518D01*
X159187504Y-100723781D01*
X159179558Y-100749975D01*
X159164884Y-100898960D01*
X159168561Y-100936292D01*
X159168560Y-101767798D01*
X158292959Y-102643400D01*
X153361882Y-102643400D01*
X153324559Y-102639724D01*
X153287236Y-102643400D01*
X153287227Y-102643400D01*
X153175574Y-102654397D01*
X153052070Y-102691861D01*
X153032313Y-102697854D01*
X152900283Y-102768426D01*
X152816643Y-102837068D01*
X152784559Y-102863399D01*
X152760761Y-102892398D01*
X152464338Y-103188820D01*
X152402201Y-103188820D01*
X152202242Y-103228594D01*
X152013884Y-103306615D01*
X151844366Y-103419883D01*
X151700203Y-103564046D01*
X151586935Y-103733564D01*
X151508914Y-103921922D01*
X151469140Y-104121881D01*
X151469140Y-104325759D01*
X151502816Y-104495060D01*
X149205220Y-104495060D01*
X149205220Y-103799962D01*
X149260198Y-103789026D01*
X149448556Y-103711005D01*
X149618074Y-103597737D01*
X149762237Y-103453574D01*
X149875505Y-103284056D01*
X149953526Y-103095698D01*
X149993300Y-102895739D01*
X149993300Y-102691861D01*
X149953526Y-102491902D01*
X149875505Y-102303544D01*
X149762237Y-102134026D01*
X149618074Y-101989863D01*
X149448556Y-101876595D01*
X149260198Y-101798574D01*
X149060239Y-101758800D01*
X148856361Y-101758800D01*
X148656402Y-101798574D01*
X148468044Y-101876595D01*
X148298526Y-101989863D01*
X148154363Y-102134026D01*
X148041095Y-102303544D01*
X147963074Y-102491902D01*
X147923300Y-102691861D01*
X147923300Y-102752040D01*
X147905219Y-102766879D01*
X147852102Y-102831603D01*
X147810246Y-102882604D01*
X147785047Y-102929748D01*
X147739674Y-103014634D01*
X147696217Y-103157895D01*
X147685220Y-103269548D01*
X147685220Y-103269558D01*
X147681544Y-103306880D01*
X138671840Y-103306880D01*
X138671840Y-101010851D01*
X138715777Y-100966914D01*
X138829045Y-100797396D01*
X138907066Y-100609038D01*
X138946840Y-100409079D01*
X138946840Y-100205201D01*
X138907066Y-100005242D01*
X138829045Y-99816884D01*
X138715777Y-99647366D01*
X138571614Y-99503203D01*
X138402096Y-99389935D01*
X138213738Y-99311914D01*
X138013779Y-99272140D01*
X137809901Y-99272140D01*
X137609942Y-99311914D01*
X137421584Y-99389935D01*
X137252066Y-99503203D01*
X137107903Y-99647366D01*
X137067100Y-99708432D01*
X137067100Y-99124318D01*
X137867019Y-98324400D01*
X144382344Y-98324400D01*
X144423525Y-98386032D01*
X144555380Y-98517887D01*
X144482820Y-98539898D01*
X144372506Y-98598863D01*
X144275815Y-98678215D01*
X144196463Y-98774906D01*
X144137498Y-98885220D01*
X144101188Y-99004918D01*
X144088928Y-99129400D01*
X144088928Y-100829400D01*
X144101188Y-100953882D01*
X144137498Y-101073580D01*
X144196463Y-101183894D01*
X144275815Y-101280585D01*
X144372506Y-101359937D01*
X144482820Y-101418902D01*
X144602518Y-101455212D01*
X144727000Y-101467472D01*
X146427000Y-101467472D01*
X146551482Y-101455212D01*
X146671180Y-101418902D01*
X146781494Y-101359937D01*
X146878185Y-101280585D01*
X146957537Y-101183894D01*
X147016502Y-101073580D01*
X147052812Y-100953882D01*
X147065072Y-100829400D01*
X147065072Y-99129400D01*
X147052812Y-99004918D01*
X147016502Y-98885220D01*
X146957537Y-98774906D01*
X146878185Y-98678215D01*
X146781494Y-98598863D01*
X146671180Y-98539898D01*
X146598620Y-98517887D01*
X146730475Y-98386032D01*
X146892990Y-98142811D01*
X147004932Y-97872558D01*
X147018114Y-97806288D01*
X168587000Y-97806288D01*
X168587000Y-98039712D01*
X168632539Y-98268652D01*
X168721866Y-98484308D01*
X168851550Y-98678394D01*
X169016606Y-98843450D01*
X169210692Y-98973134D01*
X169426348Y-99062461D01*
X169655288Y-99108000D01*
X169888712Y-99108000D01*
X170117652Y-99062461D01*
X170333308Y-98973134D01*
X170527394Y-98843450D01*
X170692450Y-98678394D01*
X170822134Y-98484308D01*
X170911461Y-98268652D01*
X170957000Y-98039712D01*
X170957000Y-97806288D01*
X170911461Y-97577348D01*
X170822134Y-97361692D01*
X170692450Y-97167606D01*
X170527394Y-97002550D01*
X170333308Y-96872866D01*
X170117652Y-96783539D01*
X169888712Y-96738000D01*
X169655288Y-96738000D01*
X169426348Y-96783539D01*
X169210692Y-96872866D01*
X169016606Y-97002550D01*
X168851550Y-97167606D01*
X168721866Y-97361692D01*
X168632539Y-97577348D01*
X168587000Y-97806288D01*
X147018114Y-97806288D01*
X147062000Y-97585660D01*
X147062000Y-97293140D01*
X147004932Y-97006242D01*
X146892990Y-96735989D01*
X146730475Y-96492768D01*
X146523632Y-96285925D01*
X146349240Y-96169400D01*
X146523632Y-96052875D01*
X146730475Y-95846032D01*
X146892990Y-95602811D01*
X147004932Y-95332558D01*
X147062000Y-95045660D01*
X147062000Y-94895588D01*
X167431414Y-94895588D01*
X167459051Y-95012221D01*
X167583564Y-95297983D01*
X167761434Y-95553962D01*
X167985825Y-95770322D01*
X168248114Y-95938748D01*
X168538222Y-96052768D01*
X168845000Y-96108000D01*
X169645000Y-96108000D01*
X169645000Y-94650000D01*
X167551416Y-94650000D01*
X167431414Y-94895588D01*
X147062000Y-94895588D01*
X147062000Y-94753140D01*
X147004932Y-94466242D01*
X146892990Y-94195989D01*
X146862537Y-94150412D01*
X167431414Y-94150412D01*
X167551416Y-94396000D01*
X169645000Y-94396000D01*
X169645000Y-92938000D01*
X168845000Y-92938000D01*
X168538222Y-92993232D01*
X168248114Y-93107252D01*
X167985825Y-93275678D01*
X167761434Y-93492038D01*
X167583564Y-93748017D01*
X167459051Y-94033779D01*
X167431414Y-94150412D01*
X146862537Y-94150412D01*
X146730475Y-93952768D01*
X146523632Y-93745925D01*
X146280411Y-93583410D01*
X146010158Y-93471468D01*
X145723260Y-93414400D01*
X145430740Y-93414400D01*
X145143842Y-93471468D01*
X144873589Y-93583410D01*
X144630368Y-93745925D01*
X144423525Y-93952768D01*
X144261010Y-94195989D01*
X144149068Y-94466242D01*
X144092000Y-94753140D01*
X144092000Y-95045660D01*
X144149068Y-95332558D01*
X144261010Y-95602811D01*
X144423525Y-95846032D01*
X144630368Y-96052875D01*
X144804760Y-96169400D01*
X144630368Y-96285925D01*
X144423525Y-96492768D01*
X144382344Y-96554400D01*
X137543905Y-96554400D01*
X137500439Y-96550119D01*
X137456973Y-96554400D01*
X137456963Y-96554400D01*
X137326950Y-96567205D01*
X137160127Y-96617811D01*
X137006381Y-96699989D01*
X137006379Y-96699990D01*
X137006380Y-96699990D01*
X136905393Y-96782868D01*
X136905391Y-96782870D01*
X136871623Y-96810583D01*
X136843910Y-96844351D01*
X135587051Y-98101211D01*
X135553284Y-98128923D01*
X135525571Y-98162691D01*
X135525568Y-98162694D01*
X135442690Y-98263681D01*
X135360512Y-98417427D01*
X135309905Y-98584250D01*
X135292819Y-98757740D01*
X135297101Y-98801219D01*
X135297100Y-103181000D01*
X135121625Y-103181000D01*
X135112812Y-103091518D01*
X135076502Y-102971820D01*
X135017537Y-102861506D01*
X134938185Y-102764815D01*
X134841494Y-102685463D01*
X134731180Y-102626498D01*
X134658620Y-102604487D01*
X134790475Y-102472632D01*
X134952990Y-102229411D01*
X135064932Y-101959158D01*
X135122000Y-101672260D01*
X135122000Y-101379740D01*
X135064932Y-101092842D01*
X134952990Y-100822589D01*
X134790475Y-100579368D01*
X134583632Y-100372525D01*
X134409240Y-100256000D01*
X134583632Y-100139475D01*
X134790475Y-99932632D01*
X134952990Y-99689411D01*
X135064932Y-99419158D01*
X135122000Y-99132260D01*
X135122000Y-98839740D01*
X135064932Y-98552842D01*
X134952990Y-98282589D01*
X134790475Y-98039368D01*
X134583632Y-97832525D01*
X134401466Y-97710805D01*
X134518355Y-97641178D01*
X134734588Y-97446269D01*
X134908641Y-97212920D01*
X135033825Y-96950099D01*
X135078476Y-96802890D01*
X134957155Y-96573000D01*
X133764000Y-96573000D01*
X133764000Y-96593000D01*
X133510000Y-96593000D01*
X133510000Y-96573000D01*
X132316845Y-96573000D01*
X132195524Y-96802890D01*
X132240175Y-96950099D01*
X132365359Y-97212920D01*
X132539412Y-97446269D01*
X132755645Y-97641178D01*
X132872534Y-97710805D01*
X132690368Y-97832525D01*
X132483525Y-98039368D01*
X132321010Y-98282589D01*
X132209068Y-98552842D01*
X132152000Y-98839740D01*
X132152000Y-99132260D01*
X132209068Y-99419158D01*
X132321010Y-99689411D01*
X132483525Y-99932632D01*
X132690368Y-100139475D01*
X132864760Y-100256000D01*
X132690368Y-100372525D01*
X132483525Y-100579368D01*
X132321010Y-100822589D01*
X132209068Y-101092842D01*
X132152000Y-101379740D01*
X132152000Y-101672260D01*
X132209068Y-101959158D01*
X132321010Y-102229411D01*
X132483525Y-102472632D01*
X132615380Y-102604487D01*
X132542820Y-102626498D01*
X132432506Y-102685463D01*
X132335815Y-102764815D01*
X132256463Y-102861506D01*
X132197498Y-102971820D01*
X132161188Y-103091518D01*
X132148928Y-103216000D01*
X130111100Y-103216000D01*
X130111100Y-96089110D01*
X132195524Y-96089110D01*
X132316845Y-96319000D01*
X133510000Y-96319000D01*
X133510000Y-95125186D01*
X133764000Y-95125186D01*
X133764000Y-96319000D01*
X134957155Y-96319000D01*
X135078476Y-96089110D01*
X135033825Y-95941901D01*
X134908641Y-95679080D01*
X134734588Y-95445731D01*
X134518355Y-95250822D01*
X134268252Y-95101843D01*
X133993891Y-95004519D01*
X133764000Y-95125186D01*
X133510000Y-95125186D01*
X133280109Y-95004519D01*
X133005748Y-95101843D01*
X132755645Y-95250822D01*
X132539412Y-95445731D01*
X132365359Y-95679080D01*
X132240175Y-95941901D01*
X132195524Y-96089110D01*
X130111100Y-96089110D01*
X130111100Y-91213540D01*
X172004120Y-91213540D01*
X172004120Y-93848274D01*
G04 #@! TA.AperFunction,Conductor*
D17*
G36*
X172004120Y-93848274D02*
G01*
X171960436Y-93748017D01*
X171782566Y-93492038D01*
X171558175Y-93275678D01*
X171295886Y-93107252D01*
X171005778Y-92993232D01*
X170699000Y-92938000D01*
X169899000Y-92938000D01*
X169899000Y-94396000D01*
X169919000Y-94396000D01*
X169919000Y-94650000D01*
X169899000Y-94650000D01*
X169899000Y-96108000D01*
X170699000Y-96108000D01*
X171005778Y-96052768D01*
X171295886Y-95938748D01*
X171558175Y-95770322D01*
X171782566Y-95553962D01*
X171960436Y-95297983D01*
X172004120Y-95197726D01*
X172004121Y-105248275D01*
X171960436Y-105148017D01*
X171782566Y-104892038D01*
X171558175Y-104675678D01*
X171295886Y-104507252D01*
X171005778Y-104393232D01*
X170699000Y-104338000D01*
X169899000Y-104338000D01*
X169899000Y-105796000D01*
X169919000Y-105796000D01*
X169919000Y-106050000D01*
X169899000Y-106050000D01*
X169899000Y-107508000D01*
X170699000Y-107508000D01*
X171005778Y-107452768D01*
X171295886Y-107338748D01*
X171558175Y-107170322D01*
X171782566Y-106953962D01*
X171960436Y-106697983D01*
X172004121Y-106597725D01*
X172004121Y-109075620D01*
X130111100Y-109075620D01*
X130111100Y-106295588D01*
X167431414Y-106295588D01*
X167459051Y-106412221D01*
X167583564Y-106697983D01*
X167761434Y-106953962D01*
X167985825Y-107170322D01*
X168248114Y-107338748D01*
X168538222Y-107452768D01*
X168845000Y-107508000D01*
X169645000Y-107508000D01*
X169645000Y-106050000D01*
X167551416Y-106050000D01*
X167431414Y-106295588D01*
X130111100Y-106295588D01*
X130111100Y-103216000D01*
X132148928Y-103216000D01*
X132148928Y-104916000D01*
X132161188Y-105040482D01*
X132197498Y-105160180D01*
X132256463Y-105270494D01*
X132335815Y-105367185D01*
X132432506Y-105446537D01*
X132542820Y-105505502D01*
X132662518Y-105541812D01*
X132787000Y-105554072D01*
X134487000Y-105554072D01*
X134611482Y-105541812D01*
X134731180Y-105505502D01*
X134841494Y-105446537D01*
X134938185Y-105367185D01*
X135017537Y-105270494D01*
X135076502Y-105160180D01*
X135112812Y-105040482D01*
X135121625Y-104951000D01*
X135658911Y-104951000D01*
X135702380Y-104955281D01*
X135745849Y-104951000D01*
X135745857Y-104951000D01*
X135875870Y-104938195D01*
X136042693Y-104887589D01*
X136196439Y-104805411D01*
X136331197Y-104694817D01*
X136358914Y-104661044D01*
X136777145Y-104242813D01*
X136810917Y-104215097D01*
X136921511Y-104080339D01*
X136985125Y-103961325D01*
X137003689Y-103926594D01*
X137054295Y-103759770D01*
X137057652Y-103725687D01*
X137067100Y-103629757D01*
X137067100Y-103629749D01*
X137071381Y-103586280D01*
X137067100Y-103542811D01*
X137067100Y-100905848D01*
X137107903Y-100966914D01*
X137151840Y-101010851D01*
X137151841Y-103775008D01*
X137148164Y-103812340D01*
X137151841Y-103849673D01*
X137158365Y-103915906D01*
X137162838Y-103961325D01*
X137206294Y-104104586D01*
X137276866Y-104236616D01*
X137326696Y-104297333D01*
X137371840Y-104352341D01*
X137400838Y-104376139D01*
X138125281Y-105100582D01*
X138149079Y-105129581D01*
X138264804Y-105224554D01*
X138396833Y-105295126D01*
X138540094Y-105338583D01*
X138651747Y-105349580D01*
X138651756Y-105349580D01*
X138689079Y-105353256D01*
X138726402Y-105349580D01*
X142628489Y-105349580D01*
X142672426Y-105393517D01*
X142841944Y-105506785D01*
X143030302Y-105584806D01*
X143230261Y-105624580D01*
X143434139Y-105624580D01*
X143634098Y-105584806D01*
X143822456Y-105506785D01*
X143991974Y-105393517D01*
X144136137Y-105249354D01*
X144249405Y-105079836D01*
X144327426Y-104891478D01*
X144367200Y-104691519D01*
X144367200Y-104487641D01*
X144327426Y-104287682D01*
X144249405Y-104099324D01*
X144136137Y-103929806D01*
X143991974Y-103785643D01*
X143822456Y-103672375D01*
X143634098Y-103594354D01*
X143434139Y-103554580D01*
X143230261Y-103554580D01*
X143030302Y-103594354D01*
X142841944Y-103672375D01*
X142672426Y-103785643D01*
X142628489Y-103829580D01*
X139003882Y-103829580D01*
X138671840Y-103497539D01*
X138671840Y-103306880D01*
X147681544Y-103306880D01*
X147685220Y-103344203D01*
X147685221Y-104991668D01*
X147681544Y-105029000D01*
X147685221Y-105066333D01*
X147691451Y-105129581D01*
X147696218Y-105177985D01*
X147739674Y-105321246D01*
X147810246Y-105453276D01*
X147881421Y-105540002D01*
X147905220Y-105569001D01*
X147934218Y-105592799D01*
X148107476Y-105766057D01*
X148131279Y-105795061D01*
X148247004Y-105890034D01*
X148379033Y-105960606D01*
X148522294Y-106004063D01*
X148633947Y-106015060D01*
X148633956Y-106015060D01*
X148671279Y-106018736D01*
X148708602Y-106015060D01*
X159065738Y-106015060D01*
X159103060Y-106018736D01*
X159140382Y-106015060D01*
X159140393Y-106015060D01*
X159252046Y-106004063D01*
X159395307Y-105960606D01*
X159527336Y-105890034D01*
X159643061Y-105795061D01*
X159666864Y-105766058D01*
X159882510Y-105550412D01*
X167431414Y-105550412D01*
X167551416Y-105796000D01*
X169645000Y-105796000D01*
X169645000Y-104338000D01*
X168845000Y-104338000D01*
X168538222Y-104393232D01*
X168248114Y-104507252D01*
X167985825Y-104675678D01*
X167761434Y-104892038D01*
X167583564Y-105148017D01*
X167459051Y-105433779D01*
X167431414Y-105550412D01*
X159882510Y-105550412D01*
X161658769Y-103774154D01*
X161687761Y-103750361D01*
X161711555Y-103721368D01*
X161711559Y-103721364D01*
X161782733Y-103634637D01*
X161782734Y-103634636D01*
X161853306Y-103502607D01*
X161896763Y-103359346D01*
X161907760Y-103247693D01*
X161907760Y-103247684D01*
X161911436Y-103210361D01*
X161907760Y-103173038D01*
X161907760Y-102406288D01*
X168587000Y-102406288D01*
X168587000Y-102639712D01*
X168632539Y-102868652D01*
X168721866Y-103084308D01*
X168851550Y-103278394D01*
X169016606Y-103443450D01*
X169210692Y-103573134D01*
X169426348Y-103662461D01*
X169655288Y-103708000D01*
X169888712Y-103708000D01*
X170117652Y-103662461D01*
X170333308Y-103573134D01*
X170527394Y-103443450D01*
X170692450Y-103278394D01*
X170822134Y-103084308D01*
X170911461Y-102868652D01*
X170957000Y-102639712D01*
X170957000Y-102406288D01*
X170911461Y-102177348D01*
X170822134Y-101961692D01*
X170692450Y-101767606D01*
X170527394Y-101602550D01*
X170333308Y-101472866D01*
X170117652Y-101383539D01*
X169888712Y-101338000D01*
X169655288Y-101338000D01*
X169426348Y-101383539D01*
X169210692Y-101472866D01*
X169016606Y-101602550D01*
X168851550Y-101767606D01*
X168721866Y-101961692D01*
X168632539Y-102177348D01*
X168587000Y-102406288D01*
X161907760Y-102406288D01*
X161907760Y-102051961D01*
X161912141Y-102047580D01*
X164061009Y-102047580D01*
X164104946Y-102091517D01*
X164274464Y-102204785D01*
X164462822Y-102282806D01*
X164662781Y-102322580D01*
X164866659Y-102322580D01*
X165066618Y-102282806D01*
X165254976Y-102204785D01*
X165424494Y-102091517D01*
X165568657Y-101947354D01*
X165681925Y-101777836D01*
X165759946Y-101589478D01*
X165799720Y-101389519D01*
X165799720Y-101185641D01*
X165759946Y-100985682D01*
X165681925Y-100797324D01*
X165568657Y-100627806D01*
X165424494Y-100483643D01*
X165254976Y-100370375D01*
X165089926Y-100302008D01*
X165104718Y-100299066D01*
X165293076Y-100221045D01*
X165462594Y-100107777D01*
X165606757Y-99963614D01*
X165720025Y-99794096D01*
X165798046Y-99605738D01*
X165837820Y-99405779D01*
X165837820Y-99201901D01*
X165798046Y-99001942D01*
X165720025Y-98813584D01*
X165606757Y-98644066D01*
X165462594Y-98499903D01*
X165293076Y-98386635D01*
X165104718Y-98308614D01*
X164904759Y-98268840D01*
X164700881Y-98268840D01*
X164500922Y-98308614D01*
X164312564Y-98386635D01*
X164143046Y-98499903D01*
X164099109Y-98543840D01*
X161561002Y-98543840D01*
X161523679Y-98540164D01*
X161486356Y-98543840D01*
X161486347Y-98543840D01*
X161374694Y-98554837D01*
X161231433Y-98598294D01*
X161099404Y-98668866D01*
X160983679Y-98763839D01*
X160959881Y-98792837D01*
X159417558Y-100335161D01*
X159388560Y-100358959D01*
X159364762Y-100387957D01*
X159364761Y-100387958D01*
X159293586Y-100474684D01*
X159223014Y-100606714D01*
X159192740Y-100706518D01*
X159187504Y-100723781D01*
X159179558Y-100749975D01*
X159164884Y-100898960D01*
X159168561Y-100936292D01*
X159168560Y-101767798D01*
X158292959Y-102643400D01*
X153361882Y-102643400D01*
X153324559Y-102639724D01*
X153287236Y-102643400D01*
X153287227Y-102643400D01*
X153175574Y-102654397D01*
X153052070Y-102691861D01*
X153032313Y-102697854D01*
X152900283Y-102768426D01*
X152816643Y-102837068D01*
X152784559Y-102863399D01*
X152760761Y-102892398D01*
X152464338Y-103188820D01*
X152402201Y-103188820D01*
X152202242Y-103228594D01*
X152013884Y-103306615D01*
X151844366Y-103419883D01*
X151700203Y-103564046D01*
X151586935Y-103733564D01*
X151508914Y-103921922D01*
X151469140Y-104121881D01*
X151469140Y-104325759D01*
X151502816Y-104495060D01*
X149205220Y-104495060D01*
X149205220Y-103799962D01*
X149260198Y-103789026D01*
X149448556Y-103711005D01*
X149618074Y-103597737D01*
X149762237Y-103453574D01*
X149875505Y-103284056D01*
X149953526Y-103095698D01*
X149993300Y-102895739D01*
X149993300Y-102691861D01*
X149953526Y-102491902D01*
X149875505Y-102303544D01*
X149762237Y-102134026D01*
X149618074Y-101989863D01*
X149448556Y-101876595D01*
X149260198Y-101798574D01*
X149060239Y-101758800D01*
X148856361Y-101758800D01*
X148656402Y-101798574D01*
X148468044Y-101876595D01*
X148298526Y-101989863D01*
X148154363Y-102134026D01*
X148041095Y-102303544D01*
X147963074Y-102491902D01*
X147923300Y-102691861D01*
X147923300Y-102752040D01*
X147905219Y-102766879D01*
X147852102Y-102831603D01*
X147810246Y-102882604D01*
X147785047Y-102929748D01*
X147739674Y-103014634D01*
X147696217Y-103157895D01*
X147685220Y-103269548D01*
X147685220Y-103269558D01*
X147681544Y-103306880D01*
X138671840Y-103306880D01*
X138671840Y-101010851D01*
X138715777Y-100966914D01*
X138829045Y-100797396D01*
X138907066Y-100609038D01*
X138946840Y-100409079D01*
X138946840Y-100205201D01*
X138907066Y-100005242D01*
X138829045Y-99816884D01*
X138715777Y-99647366D01*
X138571614Y-99503203D01*
X138402096Y-99389935D01*
X138213738Y-99311914D01*
X138013779Y-99272140D01*
X137809901Y-99272140D01*
X137609942Y-99311914D01*
X137421584Y-99389935D01*
X137252066Y-99503203D01*
X137107903Y-99647366D01*
X137067100Y-99708432D01*
X137067100Y-99124318D01*
X137867019Y-98324400D01*
X144382344Y-98324400D01*
X144423525Y-98386032D01*
X144555380Y-98517887D01*
X144482820Y-98539898D01*
X144372506Y-98598863D01*
X144275815Y-98678215D01*
X144196463Y-98774906D01*
X144137498Y-98885220D01*
X144101188Y-99004918D01*
X144088928Y-99129400D01*
X144088928Y-100829400D01*
X144101188Y-100953882D01*
X144137498Y-101073580D01*
X144196463Y-101183894D01*
X144275815Y-101280585D01*
X144372506Y-101359937D01*
X144482820Y-101418902D01*
X144602518Y-101455212D01*
X144727000Y-101467472D01*
X146427000Y-101467472D01*
X146551482Y-101455212D01*
X146671180Y-101418902D01*
X146781494Y-101359937D01*
X146878185Y-101280585D01*
X146957537Y-101183894D01*
X147016502Y-101073580D01*
X147052812Y-100953882D01*
X147065072Y-100829400D01*
X147065072Y-99129400D01*
X147052812Y-99004918D01*
X147016502Y-98885220D01*
X146957537Y-98774906D01*
X146878185Y-98678215D01*
X146781494Y-98598863D01*
X146671180Y-98539898D01*
X146598620Y-98517887D01*
X146730475Y-98386032D01*
X146892990Y-98142811D01*
X147004932Y-97872558D01*
X147018114Y-97806288D01*
X168587000Y-97806288D01*
X168587000Y-98039712D01*
X168632539Y-98268652D01*
X168721866Y-98484308D01*
X168851550Y-98678394D01*
X169016606Y-98843450D01*
X169210692Y-98973134D01*
X169426348Y-99062461D01*
X169655288Y-99108000D01*
X169888712Y-99108000D01*
X170117652Y-99062461D01*
X170333308Y-98973134D01*
X170527394Y-98843450D01*
X170692450Y-98678394D01*
X170822134Y-98484308D01*
X170911461Y-98268652D01*
X170957000Y-98039712D01*
X170957000Y-97806288D01*
X170911461Y-97577348D01*
X170822134Y-97361692D01*
X170692450Y-97167606D01*
X170527394Y-97002550D01*
X170333308Y-96872866D01*
X170117652Y-96783539D01*
X169888712Y-96738000D01*
X169655288Y-96738000D01*
X169426348Y-96783539D01*
X169210692Y-96872866D01*
X169016606Y-97002550D01*
X168851550Y-97167606D01*
X168721866Y-97361692D01*
X168632539Y-97577348D01*
X168587000Y-97806288D01*
X147018114Y-97806288D01*
X147062000Y-97585660D01*
X147062000Y-97293140D01*
X147004932Y-97006242D01*
X146892990Y-96735989D01*
X146730475Y-96492768D01*
X146523632Y-96285925D01*
X146349240Y-96169400D01*
X146523632Y-96052875D01*
X146730475Y-95846032D01*
X146892990Y-95602811D01*
X147004932Y-95332558D01*
X147062000Y-95045660D01*
X147062000Y-94895588D01*
X167431414Y-94895588D01*
X167459051Y-95012221D01*
X167583564Y-95297983D01*
X167761434Y-95553962D01*
X167985825Y-95770322D01*
X168248114Y-95938748D01*
X168538222Y-96052768D01*
X168845000Y-96108000D01*
X169645000Y-96108000D01*
X169645000Y-94650000D01*
X167551416Y-94650000D01*
X167431414Y-94895588D01*
X147062000Y-94895588D01*
X147062000Y-94753140D01*
X147004932Y-94466242D01*
X146892990Y-94195989D01*
X146862537Y-94150412D01*
X167431414Y-94150412D01*
X167551416Y-94396000D01*
X169645000Y-94396000D01*
X169645000Y-92938000D01*
X168845000Y-92938000D01*
X168538222Y-92993232D01*
X168248114Y-93107252D01*
X167985825Y-93275678D01*
X167761434Y-93492038D01*
X167583564Y-93748017D01*
X167459051Y-94033779D01*
X167431414Y-94150412D01*
X146862537Y-94150412D01*
X146730475Y-93952768D01*
X146523632Y-93745925D01*
X146280411Y-93583410D01*
X146010158Y-93471468D01*
X145723260Y-93414400D01*
X145430740Y-93414400D01*
X145143842Y-93471468D01*
X144873589Y-93583410D01*
X144630368Y-93745925D01*
X144423525Y-93952768D01*
X144261010Y-94195989D01*
X144149068Y-94466242D01*
X144092000Y-94753140D01*
X144092000Y-95045660D01*
X144149068Y-95332558D01*
X144261010Y-95602811D01*
X144423525Y-95846032D01*
X144630368Y-96052875D01*
X144804760Y-96169400D01*
X144630368Y-96285925D01*
X144423525Y-96492768D01*
X144382344Y-96554400D01*
X137543905Y-96554400D01*
X137500439Y-96550119D01*
X137456973Y-96554400D01*
X137456963Y-96554400D01*
X137326950Y-96567205D01*
X137160127Y-96617811D01*
X137006381Y-96699989D01*
X137006379Y-96699990D01*
X137006380Y-96699990D01*
X136905393Y-96782868D01*
X136905391Y-96782870D01*
X136871623Y-96810583D01*
X136843910Y-96844351D01*
X135587051Y-98101211D01*
X135553284Y-98128923D01*
X135525571Y-98162691D01*
X135525568Y-98162694D01*
X135442690Y-98263681D01*
X135360512Y-98417427D01*
X135309905Y-98584250D01*
X135292819Y-98757740D01*
X135297101Y-98801219D01*
X135297100Y-103181000D01*
X135121625Y-103181000D01*
X135112812Y-103091518D01*
X135076502Y-102971820D01*
X135017537Y-102861506D01*
X134938185Y-102764815D01*
X134841494Y-102685463D01*
X134731180Y-102626498D01*
X134658620Y-102604487D01*
X134790475Y-102472632D01*
X134952990Y-102229411D01*
X135064932Y-101959158D01*
X135122000Y-101672260D01*
X135122000Y-101379740D01*
X135064932Y-101092842D01*
X134952990Y-100822589D01*
X134790475Y-100579368D01*
X134583632Y-100372525D01*
X134409240Y-100256000D01*
X134583632Y-100139475D01*
X134790475Y-99932632D01*
X134952990Y-99689411D01*
X135064932Y-99419158D01*
X135122000Y-99132260D01*
X135122000Y-98839740D01*
X135064932Y-98552842D01*
X134952990Y-98282589D01*
X134790475Y-98039368D01*
X134583632Y-97832525D01*
X134401466Y-97710805D01*
X134518355Y-97641178D01*
X134734588Y-97446269D01*
X134908641Y-97212920D01*
X135033825Y-96950099D01*
X135078476Y-96802890D01*
X134957155Y-96573000D01*
X133764000Y-96573000D01*
X133764000Y-96593000D01*
X133510000Y-96593000D01*
X133510000Y-96573000D01*
X132316845Y-96573000D01*
X132195524Y-96802890D01*
X132240175Y-96950099D01*
X132365359Y-97212920D01*
X132539412Y-97446269D01*
X132755645Y-97641178D01*
X132872534Y-97710805D01*
X132690368Y-97832525D01*
X132483525Y-98039368D01*
X132321010Y-98282589D01*
X132209068Y-98552842D01*
X132152000Y-98839740D01*
X132152000Y-99132260D01*
X132209068Y-99419158D01*
X132321010Y-99689411D01*
X132483525Y-99932632D01*
X132690368Y-100139475D01*
X132864760Y-100256000D01*
X132690368Y-100372525D01*
X132483525Y-100579368D01*
X132321010Y-100822589D01*
X132209068Y-101092842D01*
X132152000Y-101379740D01*
X132152000Y-101672260D01*
X132209068Y-101959158D01*
X132321010Y-102229411D01*
X132483525Y-102472632D01*
X132615380Y-102604487D01*
X132542820Y-102626498D01*
X132432506Y-102685463D01*
X132335815Y-102764815D01*
X132256463Y-102861506D01*
X132197498Y-102971820D01*
X132161188Y-103091518D01*
X132148928Y-103216000D01*
X130111100Y-103216000D01*
X130111100Y-96089110D01*
X132195524Y-96089110D01*
X132316845Y-96319000D01*
X133510000Y-96319000D01*
X133510000Y-95125186D01*
X133764000Y-95125186D01*
X133764000Y-96319000D01*
X134957155Y-96319000D01*
X135078476Y-96089110D01*
X135033825Y-95941901D01*
X134908641Y-95679080D01*
X134734588Y-95445731D01*
X134518355Y-95250822D01*
X134268252Y-95101843D01*
X133993891Y-95004519D01*
X133764000Y-95125186D01*
X133510000Y-95125186D01*
X133280109Y-95004519D01*
X133005748Y-95101843D01*
X132755645Y-95250822D01*
X132539412Y-95445731D01*
X132365359Y-95679080D01*
X132240175Y-95941901D01*
X132195524Y-96089110D01*
X130111100Y-96089110D01*
X130111100Y-91213540D01*
X172004120Y-91213540D01*
X172004120Y-93848274D01*
G37*
G04 #@! TD.AperFunction*
M02*
